<?xml version="1.0" standalone="no"?><!DOCTYPE svg PUBLIC "-//W3C//DTD SVG 1.1//EN" "http://www.w3.org/Graphics/SVG/1.1/DTD/svg11.dtd"><svg class="icon" width="200px" height="190.16px" viewBox="0 0 1077 1024" version="1.1" xmlns="http://www.w3.org/2000/svg"><path fill="#8a97a0" d="M431.157895 754.526316a53.894737 53.894737 0 0 1 53.894737 53.894737v161.68421a53.894737 53.894737 0 0 1-53.894737 53.894737H53.894737a53.894737 53.894737 0 0 1-53.894737-53.894737v-161.68421a53.894737 53.894737 0 0 1 53.894737-53.894737h377.263158z m-26.947369 80.842105h-323.368421v107.789474h323.368421v-107.789474zM754.526316 0a53.894737 53.894737 0 0 1 53.894737 53.894737v161.68421a53.894737 53.894737 0 0 1-53.894737 53.894737H323.368421a53.894737 53.894737 0 0 1-53.894737-53.894737V53.894737a53.894737 53.894737 0 0 1 53.894737-53.894737h431.157895z m-26.947369 80.842105h-377.263158v107.789474h377.263158v-107.789474zM485.052632 269.473684h107.789473v269.473684H485.052632zM1024 754.526316a53.894737 53.894737 0 0 1 53.894737 53.894737v161.68421a53.894737 53.894737 0 0 1-53.894737 53.894737h-377.263158a53.894737 53.894737 0 0 1-53.894737-53.894737v-161.68421a53.894737 53.894737 0 0 1 53.894737-53.894737h377.263158z m-26.947368 80.842105h-323.368421v107.789474h323.368421v-107.789474zM808.205474 498.526316a40.421053 40.421053 0 0 1 40.259368 34.923789l0.377263 5.497263v215.578948h-80.842105v-174.996211l-512 2.640842V754.526316h-80.842105v-212.560842a40.421053 40.421053 0 0 1 34.762105-40.04379l5.443368-0.377263 592.842106-3.018105z" /></svg>