<?xml version="1.0" standalone="no"?><!DOCTYPE svg PUBLIC "-//W3C//DTD SVG 1.1//EN" "http://www.w3.org/Graphics/SVG/1.1/DTD/svg11.dtd"><svg class="icon" width="200px" height="200.00px" viewBox="0 0 1024 1024" version="1.1" xmlns="http://www.w3.org/2000/svg"><path fill="#8a97a0" d="M520.0896 583.68l-21.1456-9.2672-434.0736-208.5376C46.1312 356.864 34.048 336.384 34.048 313.4464c0-22.8864 12.0832-43.3664 30.8224-52.4288L519.3216 43.2128l20.736 9.0624 435.8144 208.7424c18.8416 9.0624 30.976 29.696 30.976 52.4288 0 22.784-12.1344 43.4176-30.8736 52.4288L520.0896 583.68zM125.7472 313.6l394.7008 177.4592 384.4096-177.4592-384.4096-184.0128-394.7008 184.0128zM499.9168 795.9552l-436.5824-185.856a47.5648 47.5648 0 0 1-29.2864-43.7248c0-18.944 11.5712-36.096 29.2864-43.7248L301.056 421.888l49.5104 64.2048-190.4128 80.2816 359.0144 152.3712 353.3312-152.3712-160.9728-59.392c-24.6784-10.496-37.6832-32.6144-26.9824-56.7296a48.9984 48.9984 0 0 1 64-24.7808l228.9664 97.1776a47.5648 47.5648 0 0 1 29.2864 43.7248c0 18.944-11.5712 36.1984-29.2864 43.7248l-438.8864 185.7536a48.9984 48.9984 0 0 1-38.8096 0.1024zM500.0192 1012.1728l-436.736-184.0128a47.104 47.104 0 0 1-29.2352-43.3152c0-18.7904 11.5712-35.7376 29.2864-43.3152l237.7216-99.8912a49.2032 49.2032 0 0 1 64 24.5248c10.752 23.9104 9.3184 43.52-15.36 53.8624l-164.6592 64.8192 334.336 142.3872 339.2512-142.3872-154.5728-64.8192c-24.6272-10.3936-30.208-26.2656-19.5072-50.176a49.2544 49.2544 0 0 1 64-24.576l228.9664 96.256a47.104 47.104 0 0 1 29.3376 43.3152c0 18.7904-11.5712 35.84-29.3376 43.3152l-438.9376 184.0128a49.408 49.408 0 0 1-38.6048 0z" /></svg>