<?xml version="1.0" standalone="no"?><!DOCTYPE svg PUBLIC "-//W3C//DTD SVG 1.1//EN" "http://www.w3.org/Graphics/SVG/1.1/DTD/svg11.dtd"><svg class="icon" width="200px" height="200.00px" viewBox="0 0 1024 1024" version="1.1" xmlns="http://www.w3.org/2000/svg"><path fill="#8a97a0" d="M867.84 770.9184h-27.392v-375.808c0-156.0064-119.1936-284.928-274.2784-306.3808v-43.008c0-24.4224-20.48-44.1856-45.7216-44.1856-25.2928 0-45.7216 19.7632-45.7216 44.2368v43.008c-155.136 21.4016-274.2784 150.3232-274.2784 306.2784v375.8592h-27.4432a35.9424 35.9424 0 0 0-36.5568 35.3792v35.3792c0 4.864 4.096 8.8576 9.1136 8.8576h246.8864c0 68.3008 57.344 123.8016 128 123.8016s128-55.5008 128-123.8016h246.8352a9.0112 9.0112 0 0 0 9.1648-8.8576v-35.328c0-19.6096-16.384-35.4304-36.608-35.4304z m-347.392 132.6592c-30.3104 0-54.8864-23.7568-54.8864-53.0432h109.7216c0 29.2864-24.576 53.0432-54.8352 53.0432z m-237.7216-132.608V395.008c0-61.44 24.6784-119.1424 69.632-162.6112a240.1792 240.1792 0 0 1 168.0896-67.328c63.488 0 123.1872 23.9104 168.0896 67.328a224.6144 224.6144 0 0 1 69.632 162.6112v375.8592H282.7264z" /></svg>