<?xml version="1.0" standalone="no"?><!DOCTYPE svg PUBLIC "-//W3C//DTD SVG 1.1//EN" "http://www.w3.org/Graphics/SVG/1.1/DTD/svg11.dtd"><svg class="icon" width="200px" height="200.00px" viewBox="0 0 1024 1024" version="1.1" xmlns="http://www.w3.org/2000/svg"><path fill="#8a97a0" d="M970.105263 0a53.894737 53.894737 0 0 1 53.894737 53.894737v688.666947a53.894737 53.894737 0 0 1-53.894737 53.894737H53.894737a53.894737 53.894737 0 0 1-53.894737-53.894737V53.894737a53.894737 53.894737 0 0 1 53.894737-53.894737h916.210526z m-26.947368 80.842105h-862.31579v634.718316h862.31579V80.842105zM455.087158 739.543579h85.315368v227.543579H455.087158zM327.141053 969.350737v-4.473263a40.421053 40.421053 0 0 1 40.421052-40.421053h260.473263a40.421053 40.421053 0 0 1 40.421053 40.421053v4.473263a40.421053 40.421053 0 0 1-40.421053 40.421052H367.508211a40.421053 40.421053 0 0 1-40.421053-40.421052zM227.543579 272.491789v-4.527157a40.421053 40.421053 0 0 1 40.421053-40.421053h488.070736a40.421053 40.421053 0 0 1 40.421053 40.421053v4.527157a40.421053 40.421053 0 0 1-40.421053 40.421053H267.964632a40.421053 40.421053 0 0 1-40.421053-40.421053zM227.543579 500.035368v-4.527157a40.421053 40.421053 0 0 1 40.421053-40.421053h488.070736a40.421053 40.421053 0 0 1 40.421053 40.421053v4.527157a40.421053 40.421053 0 0 1-40.421053 40.421053H267.964632a40.421053 40.421053 0 0 1-40.421053-40.421053z" /></svg>