<?xml version="1.0" standalone="no"?><!DOCTYPE svg PUBLIC "-//W3C//DTD SVG 1.1//EN" "http://www.w3.org/Graphics/SVG/1.1/DTD/svg11.dtd"><svg t="1648604917329" class="icon" viewBox="0 0 1024 1024" version="1.1" xmlns="http://www.w3.org/2000/svg" p-id="19147" xmlns:xlink="http://www.w3.org/1999/xlink" width="200" height="200"><defs><style type="text/css">@font-face { font-family: feedback-iconfont; src: url("//at.alicdn.com/t/font_1031158_u69w8yhxdu.woff2?t=1630033759944") format("woff2"), url("//at.alicdn.com/t/font_1031158_u69w8yhxdu.woff?t=1630033759944") format("woff"), url("//at.alicdn.com/t/font_1031158_u69w8yhxdu.ttf?t=1630033759944") format("truetype"); }
</style></defs><path d="M639.9488 1024H384c-19.2 0-31.9488-12.8-31.9488-32V870.4c-25.6-12.8-51.2-25.6-70.4-38.4L179.3536 896a33.6896 33.6896 0 0 1-44.7488-12.8L6.656 659.2c-12.8-19.2-6.4-38.4 12.8-44.8l102.3488-64v-76.8L19.4048 409.6C0.3072 403.2-6.144 384 6.656 364.8L134.6048 140.8c6.4-12.8 25.6-19.2 44.7488-6.4l102.4 64c19.1488-12.8 44.7488-32 70.3488-38.4v-128C352.1024 12.8 364.9024 0 384 0H640c19.2 0 31.9488 12.8 31.9488 32V153.6c25.6 12.8 51.2 25.6 70.4 38.4l102.3488-64a33.6896 33.6896 0 0 1 44.7488 12.8l127.9488 224c12.8 19.2 6.4 38.4-12.8 44.8l-102.3488 64v76.8l102.4 64c12.7488 6.4 19.1488 25.6 12.7488 44.8l-127.9488 224c-6.4 12.8-25.6 19.2-44.7488 12.8l-102.4-64c-19.1488 12.8-44.7488 32-70.3488 38.4v121.6c0 19.2-12.8 32-31.9488 32z m-215.6544-102.4h175.4112v-99.4816c0-11.6736 5.888-23.3984 17.5616-29.2352a372.8384 372.8384 0 0 0 81.92-46.848 37.2736 37.2736 0 0 1 35.072 0l87.7056 52.6848 87.7056-152.1152-87.7056-52.6848c-11.6736-11.7248-17.5616-23.3984-11.6736-35.1232 0-17.5616 5.8368-29.2352 5.8368-46.7968 0-17.5616 0-29.2352-5.8368-46.7968 0-11.7248 5.8368-23.3984 11.6736-29.2864l87.7056-52.6336-87.7056-152.1664-87.7056 52.6848a37.2736 37.2736 0 0 1-35.1232 0 372.8384 372.8384 0 0 0-81.8688-46.7968c-11.6736-11.7248-17.5616-23.4496-17.5616-35.1232V102.4H424.2944v99.4816a32.2048 32.2048 0 0 1-17.5616 29.2352 372.8384 372.8384 0 0 0-81.92 46.848 37.2736 37.2736 0 0 1-35.072 0l-87.7056-46.848-87.7056 152.1664 87.7056 52.6336c11.6736 5.888 17.5616 17.5616 11.6736 29.2864 0 17.5616-5.8368 29.2352-5.8368 46.7968 0 17.5616 0 29.2352 5.8368 46.7968 5.888 11.7248 0 23.3984-11.6736 29.2864l-87.7056 52.6336 87.7056 152.1664 87.7056-52.6848a37.2736 37.2736 0 0 1 35.1232 0 372.8384 372.8384 0 0 0 81.8688 46.7968 32.2048 32.2048 0 0 1 17.5616 29.2864V921.6z" fill="#2c2c2c" p-id="19148"></path><path d="M512 739.5328c-128.9728 0-227.5328-98.56-227.5328-227.5328S382.976 284.4672 512 284.4672 739.5328 382.976 739.5328 512 641.024 739.5328 512 739.5328z m0-379.2384A152.1664 152.1664 0 0 0 360.2944 512 152.1664 152.1664 0 0 0 512 663.7056 152.1664 152.1664 0 0 0 663.7056 512 152.1664 152.1664 0 0 0 512 360.2944z" fill="#2c2c2c" p-id="19149"></path></svg>