<?xml version="1.0" standalone="no"?><!DOCTYPE svg PUBLIC "-//W3C//DTD SVG 1.1//EN" "http://www.w3.org/Graphics/SVG/1.1/DTD/svg11.dtd"><svg class="icon" width="200px" height="200.00px" viewBox="0 0 1024 1024" version="1.1" xmlns="http://www.w3.org/2000/svg"><path fill="#8a97a0" d="M954.2144 223.744L705.0752 12.5952A53.248 53.248 0 0 0 670.72 0H104.1408C74.9568 0 51.2 23.552 51.2 52.5824v918.8352C51.2 1000.3968 74.9568 1024 104.1408 1024h815.7184c29.184 0 52.9408-23.552 52.9408-52.5824V263.7824c0-15.4112-6.8096-30.0544-18.5856-40.0384z m-236.5952-91.9552l100.864 85.504h-100.864v-85.504zM134.3488 941.4144V82.5856h500.1216v164.6592c0 28.9792 23.7568 52.5824 52.992 52.5824h202.24v641.5872H134.2976zM270.848 312.5248h192.8704a41.472 41.472 0 0 0 41.5744-41.2672 41.472 41.472 0 0 0-41.5744-41.3184H270.8992a41.472 41.472 0 0 0-41.5744 41.3184 41.472 41.472 0 0 0 41.5744 41.2672z m482.2016 158.208H270.8992a41.472 41.472 0 0 0-41.5744 41.2672 41.472 41.472 0 0 0 41.5744 41.2672h482.2016a41.472 41.472 0 0 0 41.5744-41.2672 41.472 41.472 0 0 0-41.5744-41.2672z m0 240.7424H270.8992a41.472 41.472 0 0 0-41.5744 41.2672 41.472 41.472 0 0 0 41.5744 41.3184h482.2016a41.472 41.472 0 0 0 41.5744-41.3184 41.472 41.472 0 0 0-41.5744-41.2672z" /></svg>