<?xml version="1.0" standalone="no"?><!DOCTYPE svg PUBLIC "-//W3C//DTD SVG 1.1//EN" "http://www.w3.org/Graphics/SVG/1.1/DTD/svg11.dtd"><svg class="icon" width="200px" height="200.00px" viewBox="0 0 1024 1024" version="1.1" xmlns="http://www.w3.org/2000/svg"><path fill="#8a97a0" d="M741.659208 170.668089H910.220705v65.649668h-168.561497V170.668089z m0 196.949005H910.220705v65.59278h-168.561497V367.617094z m0 196.892116H910.220705v65.649669h-168.561497V564.50921zM640.510932 170.668089H33.735055A33.393722 33.393722 0 0 0 0 203.492923v787.682243c0 18.033748 15.189308 32.824834 33.735055 32.824834h606.775877c18.545747 0 33.735055-14.791086 33.735055-32.824834V203.492923A33.393722 33.393722 0 0 0 640.510932 170.668089z m-33.678166 787.682243H67.413221V236.317757h539.419545v722.032575zM113.777588 393.842828h337.122994v65.649668H113.777588V393.842828z m0 196.949005h337.122994v65.59278H113.777588v-65.59278z m1.080887 196.892116h337.066105V853.333618H114.915364v-65.649669zM990.263238 0.001707H383.487361a33.393722 33.393722 0 0 0-33.735055 32.824834v98.417614h67.413221V65.708264h539.419545v722.032574h-269.652884V853.333618h303.33105c18.545747 0 33.735055-14.791086 33.735055-32.824834V32.826541A33.393722 33.393722 0 0 0 990.263238 0.001707z" /></svg>