<?xml version="1.0" encoding="UTF-8"?>
<svg width="30px" height="30px" viewBox="0 0 30 30" version="1.1" xmlns="http://www.w3.org/2000/svg" xmlns:xlink="http://www.w3.org/1999/xlink">
    <title>exchanger4-unknow</title>
    <g id="设计规范" stroke="none" stroke-width="1" fill="none" fill-rule="evenodd">
        <g id="图标" transform="translate(-509.000000, -826.000000)">
            <g id="exchanger4-unknow" transform="translate(509.000000, 826.000000)">
                <circle id="椭圆形备份-11" fill="#FFFFFF" cx="15" cy="14" r="14"></circle>
                <g id="交换机-(1)备份-2" transform="translate(6.000000, 8.000000)" fill="#6E7B84" fill-rule="nonzero">
                    <polygon id="路径" points="10.1925234 6.91616766 11.5183801 4.77844311 13.8800623 4.77844311 13.6314642 5.11377246 14.8330218 6.45508983 16.4903427 4.61077845 17.7333333 3.22754491 16.4903427 1.88622754 14.8330218 5.58435533e-16 13.6314642 1.38323353 13.9629284 1.80239522 10.7311526 1.80239522 8.86666667 4.77844311 7.00218068 1.80239522 3.77040498 1.80239522 4.10186916 1.38323353 2.90031152 0 1.24299066 1.88622754 0 3.22754491 1.24299066 4.61077845 2.90031152 6.45508983 4.10186916 5.11377246 3.85327103 4.77844311 6.21495328 4.77844311 7.54080996 6.91616766 5.05482865 10.9820359 0.331464162 10.9820359 0.331464162 14 5.80062304 14 5.80062304 13.9580838 8.86666667 9.05389221 11.9327103 13.9580838 11.9327103 14 17.4018692 14 17.4018692 10.9820359 12.6785047 10.9820359"></polygon>
                </g>
                <g id="路由器-(2)备份-4" fill="#6E7B84" fill-rule="nonzero">
                    <path d="M15,30 C6.93907117,30 0.190536156,23.4364286 0.00397038197,15.375 C-0.18473986,7.125 6.37722935,0.188571416 14.624724,0 L15,0 C23.0609288,0 29.8094638,6.56357142 29.9960296,14.625 C30.1847398,22.875 23.6227707,29.8114286 15.375276,30 L15,30 Z M15,1.875 C7.50091296,2.06357142 1.87820603,8.06357142 1.87820603,15.1885714 C2.06477183,22.3114286 7.87618897,28.125 15,28.125 L15.1865658,28.125 C22.499087,27.9364286 28.121794,21.9385714 28.121794,14.8114286 C27.9352282,7.68642858 22.123811,1.875 15,1.875 Z" id="形状"></path>
                </g>
            </g>
        </g>
    </g>
</svg>