<?xml version="1.0" encoding="UTF-8"?>
<svg width="25px" height="25px" viewBox="0 0 25 25" version="1.1" xmlns="http://www.w3.org/2000/svg" xmlns:xlink="http://www.w3.org/1999/xlink">
    <title>exchanger2-unknow</title>
    <g id="设计规范" stroke="none" stroke-width="1" fill="none" fill-rule="evenodd">
        <g id="图标" transform="translate(-724.000000, -831.000000)">
            <g id="exchanger2-unknow" transform="translate(724.000000, 831.000000)">
                <rect id="矩形" fill="#FFFFFF" x="1" y="14" width="23" height="10"></rect>
                <polygon id="路径-3" fill="#FFFFFF" points="5.22821114 1.82892829 2.99599525 11.3809044 7.78074898 12.626854 16.7360132 13.3753405 21 12.5 21.8757209 7.04987052 21 2.26447276 14.206394 0.81479796"></polygon>
                <path d="M4.57545839,18.6623037 L6.83466541,18.6623037 C7.15170036,18.6623037 7.41012381,18.408377 7.41012381,18.0968586 L7.41012381,17.5680628 C7.41012381,17.2565445 7.15170036,17.0026178 6.83466541,17.0026178 L4.57545839,17.0026178 C4.25842344,17.0026178 4,17.2565445 4,17.5680628 L4,18.0968586 C4,18.408377 4.25842344,18.6623037 4.57545839,18.6623037 L4.57545839,18.6623037 Z M4.57545839,22 L6.83466541,22 C7.15170036,22 7.41012381,21.7460733 7.41012381,21.434555 L7.41012381,20.9057592 C7.41012381,20.5942408 7.15170036,20.3403141 6.83466541,20.3403141 L4.57545839,20.3403141 C4.25842344,20.3403141 4,20.5942408 4,20.9057592 L4,21.434555 C4,21.7486911 4.25842344,22 4.57545839,22 L4.57545839,22 Z M9.93308259,18.6623037 L9.9517317,18.6623037 C10.4179596,18.6623037 10.7962702,18.2905759 10.7962702,17.8324607 L10.7962702,17.8298429 C10.7962702,17.3717277 10.4179596,17 9.9517317,17 L9.93308259,17 C9.46685472,17 9.08854412,17.3717277 9.08854412,17.8298429 L9.08854412,17.8324607 C9.08854412,18.2905759 9.46685472,18.6623037 9.93308259,18.6623037 Z M9.93308259,22 L9.9517317,22 C10.4179596,22 10.7962702,21.6282723 10.7962702,21.1701571 L10.7962702,21.1675393 C10.7962702,20.7094241 10.4179596,20.3376963 9.9517317,20.3376963 L9.93308259,20.3376963 C9.46685472,20.3376963 9.08854412,20.7094241 9.08854412,21.1675393 L9.08854412,21.1701571 C9.08854412,21.6308901 9.46685472,22 9.93308259,22 Z M13.3432064,18.6623037 L13.3618555,18.6623037 C13.8280834,18.6623037 14.206394,18.2905759 14.206394,17.8324607 L14.206394,17.8298429 C14.206394,17.3717277 13.8280834,17 13.3618555,17 L13.3432064,17 C12.8769785,17 12.4986679,17.3717277 12.4986679,17.8298429 L12.4986679,17.8324607 C12.4986679,18.2905759 12.8769785,18.6623037 13.3432064,18.6623037 Z M13.3432064,22 L13.3618555,22 C13.8280834,22 14.206394,21.6282723 14.206394,21.1701571 L14.206394,21.1675393 C14.206394,20.7094241 13.8280834,20.3376963 13.3618555,20.3376963 L13.3432064,20.3376963 C12.8769785,20.3376963 12.4986679,20.7094241 12.4986679,21.1675393 L12.4986679,21.1701571 C12.4986679,21.6308901 12.8769785,22 13.3432064,22 Z M16.7266886,18.6623037 L16.7453377,18.6623037 C17.2115656,18.6623037 17.5898762,18.2905759 17.5898762,17.8324607 L17.5898762,17.8298429 C17.5898762,17.3717277 17.2115656,17 16.7453377,17 L16.7266886,17 C16.2604607,17 15.8821501,17.3717277 15.8821501,17.8298429 L15.8821501,17.8324607 C15.8821501,18.2905759 16.2604607,18.6623037 16.7266886,18.6623037 Z M16.7266886,22 L16.7453377,22 C17.2115656,22 17.5898762,21.6282723 17.5898762,21.1701571 L17.5898762,21.1675393 C17.5898762,20.7094241 17.2115656,20.3376963 16.7453377,20.3376963 L16.7266886,20.3376963 C16.2604607,20.3376963 15.8821501,20.7094241 15.8821501,21.1675393 L15.8821501,21.1701571 C15.8821501,21.6308901 16.2604607,22 16.7266886,22 Z M20.1368124,18.6623037 L20.1554615,18.6623037 C20.6216894,18.6623037 21,18.2905759 21,17.8324607 L21,17.8298429 C21,17.3717277 20.6216894,17 20.1554615,17 L20.1368124,17 C19.6705845,17 19.2922739,17.3717277 19.2922739,17.8298429 L19.2922739,17.8324607 C19.2922739,18.2905759 19.6705845,18.6623037 20.1368124,18.6623037 Z M20.1368124,22 L20.1554615,22 C20.6216894,22 21,21.6282723 21,21.1701571 L21,21.1675393 C21,20.7094241 20.6216894,20.3376963 20.1554615,20.3376963 L20.1368124,20.3376963 C19.6705845,20.3376963 19.2922739,20.7094241 19.2922739,21.1675393 L19.2922739,21.1701571 C19.2922739,21.6308901 19.6705845,22 20.1368124,22 Z" id="形状" fill="#6E7B84" fill-rule="nonzero"></path>
                <path d="M24.9972101,14.3275343 L23.150318,0.769488123 C23.088941,0.328984053 22.7123089,0 22.2659301,0 L2.78428747,0 C2.34069858,0 1.96406651,0.326196052 1.89989956,0.766700123 L0,14.3275343 L0.0223189376,14.3275343 L0,14.3498383 L0,23.9795918 C0,24.5427679 0.457538221,25 1.0210914,25 L23.9789086,25 C24.5424618,25 25,24.5427679 25,23.9795918 L25,14.3498383 L24.9776811,14.3275343 L24.9972101,14.3275343 Z M11.5891084,1.82892829 L11.4747238,3.66900859 L20.1456311,3.66900859 L20.16795,5.53975689 L11.3603392,5.53975689 L11.240375,7.4690532 L5.63553175,4.58347273 L11.5891084,1.82892829 Z M5.44861065,8.66510539 L14.2311126,8.66510539 L14.3092289,6.53786105 L20.2070081,9.50708152 L14.0832496,12.626854 L14.1557862,10.6891937 L5.22821114,10.6891937 L5.44861065,8.66510539 Z M23.2116951,23.2156797 L1.78551501,23.2156797 L1.78551501,14.3275343 L23.2116951,14.3275343 L23.2116951,23.2156797 L23.2116951,23.2156797 Z" id="形状" fill="#6E7B84" fill-rule="nonzero"></path>
            </g>
        </g>
    </g>
</svg>