<?xml version="1.0" encoding="UTF-8"?>
<svg width="36px" height="31px" viewBox="0 0 36 31" version="1.1" xmlns="http://www.w3.org/2000/svg" xmlns:xlink="http://www.w3.org/1999/xlink">
    <title>exchanger1-unknow</title>
    <g id="设计规范" stroke="none" stroke-width="1" fill="none" fill-rule="evenodd">
        <g id="图标" transform="translate(-647.000000, -690.000000)">
            <g id="exchanger1-unknow" transform="translate(647.000000, 690.000000)">
                <rect id="矩形" fill="#FFFFFF" x="6" y="2" width="23" height="15"></rect>
                <rect id="矩形" stroke="#979797" fill="#FFFFFF" x="17.5" y="21.5" width="15" height="7"></rect>
                <g id="交换机" transform="translate(0.000000, 0.000000)" fill="#8A97A0" fill-rule="nonzero">
                    <path d="M6.17128003,1.26477163e-05 C5.59599558,-0.00251438933 5.08748522,0.37386542 4.92134366,0.925217957 L7.5939365e-08,17.3447234 L7.5939365e-08,29.7038165 C7.5939365e-08,30.4197205 0.582194878,31 1.30025908,31 L34.6997402,31 C35.4178044,31 36.0000001,30.4197205 36.0000001,29.7038165 L36.0000001,17.3445342 L31.3103088,1.01263224 C31.1491851,0.457736897 30.6417014,0.0757591831 30.0644399,0.0748850403 L6.17128003,1.26477163e-05 Z M35.999984,19.4214915 L0,19.4214915 L0,17.5539402 L35.999984,17.5539402 L35.999984,19.4214915 Z M19.3257979,23.0496422 L23.3633969,23.0496422 L23.3633969,27.0730454 L19.3259869,27.0730454 L19.3259869,23.0496422 L19.3257979,23.0496422 Z M26.3341743,23.0496422 L30.3696564,23.0496422 L30.3696564,27.0730454 L26.3341743,27.0730454 L26.3341743,23.0496422 Z M16.7175455,3.02446781 L16.589223,5.05941935 L26.3115473,5.05941935 L26.3367086,7.12847003 L16.4610955,7.12847003 L16.3265795,9.26223377 L10.0420812,6.07079504 L16.7175697,3.02446781 L16.7175455,3.02446781 Z M9.72175728,11.0724473 L19.6091647,11.0724473 L19.6970356,8.69514212 L26.3369142,12.0134867 L19.4427389,15.5000073 L19.5244162,13.3344717 L9.47366465,13.3344717 L9.72179357,11.0724473 L9.72175728,11.0724473 Z" id="形状"></path>
                </g>
                <path d="M36,19 L36,29.8 C36,30.4627417 35.4627417,31 34.8,31 L1.2,31 C0.5372583,31 -8.0701597e-16,30.4627417 0,29.8 L0,19 L36,19 Z M23.3633972,23.2137793 L19.2491115,23.2137793 L19.2491115,26.9300928 L23.3633972,26.9300928 L23.3633972,23.2137793 Z M30.4484604,23.2137793 L26.3341746,23.2137793 L26.3341746,26.9300928 L30.4484604,26.9300928 L30.4484604,23.2137793 Z" id="形状结合" fill="#6E7B84"></path>
            </g>
        </g>
    </g>
</svg>