<?xml version="1.0" standalone="no"?><!DOCTYPE svg PUBLIC "-//W3C//DTD SVG 1.1//EN" "http://www.w3.org/Graphics/SVG/1.1/DTD/svg11.dtd"><svg class="icon" width="200px" height="190.16px" viewBox="0 0 1077 1024" version="1.1" xmlns="http://www.w3.org/2000/svg"><path fill="#8a97a0" d="M646.736842 0a53.894737 53.894737 0 0 1 53.894737 53.894737v916.210526a53.894737 53.894737 0 0 1-53.894737 53.894737H431.157895a53.894737 53.894737 0 0 1-53.894737-53.894737V53.894737a53.894737 53.894737 0 0 1 53.894737-53.894737h215.578947z m-26.947368 80.842105h-161.684211v862.31579h161.684211v-862.31579zM269.473684 485.052632a53.894737 53.894737 0 0 1 53.894737 53.894736v431.157895a53.894737 53.894737 0 0 1-53.894737 53.894737H53.894737a53.894737 53.894737 0 0 1-53.894737-53.894737v-431.157895a53.894737 53.894737 0 0 1 53.894737-53.894736h215.578947z m-26.947368 80.842105h-161.684211v377.263158h161.684211v-377.263158zM1024 269.473684a53.894737 53.894737 0 0 1 53.894737 53.894737v646.736842a53.894737 53.894737 0 0 1-53.894737 53.894737h-215.578947a53.894737 53.894737 0 0 1-53.894737-53.894737V323.368421a53.894737 53.894737 0 0 1 53.894737-53.894737h215.578947z m-26.947368 80.842105h-161.684211v592.842106h161.684211v-592.842106z" /></svg>