<?xml version="1.0" standalone="no"?><!DOCTYPE svg PUBLIC "-//W3C//DTD SVG 1.1//EN" "http://www.w3.org/Graphics/SVG/1.1/DTD/svg11.dtd"><svg class="icon" width="200px" height="150.04px" viewBox="0 0 1365 1024" version="1.1" xmlns="http://www.w3.org/2000/svg"><path fill="#8a97a0" d="M304.8448 549.888h0.477867a37.751467 37.751467 0 0 0 0-75.400533c-26.077867 0-51.165867-13.4144-70.621867-37.717334-21.435733-26.8288-33.211733-62.907733-33.211733-101.717333 0-38.741333 11.776-74.9568 33.211733-101.6832 19.456-24.234667 44.509867-37.6832 70.621867-37.6832a37.751467 37.751467 0 0 0 0-75.434667c-49.493333 0-95.5392 23.483733-129.6384 66.082134-32.017067 40.106667-49.664 92.945067-49.664 148.718933 0 55.842133 17.646933 108.680533 49.664 148.821333 4.8128 6.144 10.069333 11.8784 15.36 17.134934a308.4288 308.4288 0 0 0-104.584534 85.435733C30.788267 656.110933 0 748.4416 0 846.165333a37.751467 37.751467 0 0 0 75.434667 0c0-163.362133 102.8096-296.277333 229.2736-296.277333h0.136533z m974.0288 36.727467c-27.784533-34.747733-60.279467-62.190933-96.597333-81.373867-2.730667-1.3312-5.3248-2.696533-8.055467-4.061867 5.5296-5.358933 10.6496-11.127467 15.36-17.2032 32.085333-40.1408 49.698133-92.945067 49.698133-148.753066 0-55.842133-17.646933-108.6464-49.629866-148.753067-34.133333-42.564267-80.008533-66.048-129.706667-66.048a37.751467 37.751467 0 0 0 0 75.400533c26.146133 0 51.2 13.4144 70.656 37.717334 21.435733 26.8288 33.245867 62.907733 33.245867 101.717333 0 38.741333-11.810133 74.9568-33.211734 101.6832-19.490133 24.234667-44.544 37.6832-70.656 37.6832a37.751467 37.751467 0 0 0 0 75.434667h0.648534c126.293333 0 229.205333 132.881067 229.205333 296.311466a37.751467 37.751467 0 0 0 75.502933 0c0-97.8944-30.788267-190.122667-86.459733-259.754666z m-251.630933 16.861866a474.658133 474.658133 0 0 0-179.9168-112.8448 269.9264 269.9264 0 0 0 114.688-220.740266A270.267733 270.267733 0 0 0 692.053333 0a270.336 270.336 0 0 0-269.994666 269.892267 269.960533 269.960533 0 0 0 114.107733 220.2624c-68.232533 23.517867-130.184533 62.2592-181.1456 113.3568a472.405333 472.405333 0 0 0-139.605333 334.9504v47.854933c0 20.821333 16.896 37.6832 37.717333 37.6832h876.168533c20.821333 0 37.717333-16.896 37.717334-37.717333v-47.991467a472.610133 472.610133 0 0 0-139.741867-334.7456v-0.068267zM497.4592 269.892267a194.696533 194.696533 0 0 1 194.56-194.491734 194.696533 194.696533 0 0 1 194.56 194.491734 194.696533 194.696533 0 0 1-194.56 194.4576 194.798933 194.798933 0 0 1-194.56-194.4576zM1091.515733 948.565333H290.7136v-9.045333c0.4096-220.296533 179.882667-399.496533 400.384-399.496533 220.3648 0 399.9744 179.2 400.384 399.496533v9.045333z" /></svg>