<?xml version="1.0" standalone="no"?><!DOCTYPE svg PUBLIC "-//W3C//DTD SVG 1.1//EN" "http://www.w3.org/Graphics/SVG/1.1/DTD/svg11.dtd"><svg class="icon" width="200px" height="200.00px" viewBox="0 0 1024 1024" version="1.1" xmlns="http://www.w3.org/2000/svg"><path fill="#8a97a0" d="M995.538064 659.583794a117.695461 117.695461 0 0 0-83.678116-26.280959h-65.816167V513.673278a31.514396 31.514396 0 0 0-32.538329-30.376692H532.037525V390.630609h65.759281a117.638576 117.638576 0 0 0 83.791887-26.280958c20.023587-20.876865 30.149151-49.319461 27.759974-78.160253V104.782522A101.0281 101.0281 0 0 0 681.531808 26.73604a117.638576 117.638576 0 0 0-83.791887-26.337844H403.306337A117.638576 117.638576 0 0 0 319.628221 26.73604a100.857444 100.857444 0 0 0-28.15817 78.103368v181.46376c-2.275408 28.840792 7.963927 57.283388 28.15817 78.103368 23.493584 19.227195 53.47208 28.670136 83.791886 26.280958H467.074637v92.722862H208.247016a31.514396 31.514396 0 0 0-32.538329 30.376692v119.572673H112.167928a117.524805 117.524805 0 0 0-83.621232 26.280958 101.0281 101.0281 0 0 0-28.215054 78.160253v181.46376c-2.275408 28.840792 7.963927 57.283388 28.158169 78.046483 23.436699 19.227195 53.47208 28.670136 83.678117 26.337843H306.658397a117.695461 117.695461 0 0 0 83.735002-26.337843c20.137358-20.763095 30.376692-49.262576 28.101284-78.103368v-181.46376a101.084985 101.084985 0 0 0-28.101284-78.103368 117.695461 117.695461 0 0 0-83.735002-26.280958H240.842231V544.04997h540.181777v89.252865H717.369479a117.752346 117.752346 0 0 0-83.791887 26.280959 101.14187 101.14187 0 0 0-28.0444 78.160253v181.46376c-2.275408 28.897677 7.963927 57.340273 28.101285 78.103368 23.493584 19.227195 53.47208 28.613251 83.735002 26.280958h194.433584a117.695461 117.695461 0 0 0 83.621231-26.337843c20.194243-20.763095 30.490463-49.262576 28.15817-78.103368v-181.463761a101.0281 101.0281 0 0 0-28.101285-78.103367z" /></svg>