<?xml version="1.0" standalone="no"?><!DOCTYPE svg PUBLIC "-//W3C//DTD SVG 1.1//EN" "http://www.w3.org/Graphics/SVG/1.1/DTD/svg11.dtd"><svg t="1650013609098" class="icon" viewBox="0 0 1024 1024" version="1.1" xmlns="http://www.w3.org/2000/svg" p-id="8933" xmlns:xlink="http://www.w3.org/1999/xlink" width="200" height="200"><defs><style type="text/css">@font-face { font-family: feedback-iconfont; src: url("//at.alicdn.com/t/font_1031158_u69w8yhxdu.woff2?t=1630033759944") format("woff2"), url("//at.alicdn.com/t/font_1031158_u69w8yhxdu.woff?t=1630033759944") format("woff"), url("//at.alicdn.com/t/font_1031158_u69w8yhxdu.ttf?t=1630033759944") format("truetype"); }
</style></defs><path d="M512 0C229.262222 0 0 229.262222 0 512s229.262222 512 512 512 512-229.262222 512-512S794.737778 0 512 0z m0 950.869333C269.596444 950.869333 73.130667 754.403556 73.130667 512S269.596444 73.130667 512 73.130667 950.869333 269.596444 950.869333 512 754.403556 950.869333 512 950.869333z m109.710222-731.448889H438.897778v585.159112H512V585.102222h109.710222a182.869333 182.869333 0 1 0 0-365.710222z m0 292.579556H512v-219.420444h109.710222a109.710222 109.710222 0 1 1 0 219.420444zM292.579556 219.420444h73.130666v585.159112h-73.130666V219.420444z" p-id="8934"></path></svg>