<?xml version="1.0" standalone="no"?><!DOCTYPE svg PUBLIC "-//W3C//DTD SVG 1.1//EN" "http://www.w3.org/Graphics/SVG/1.1/DTD/svg11.dtd"><svg class="icon" width="200px" height="200.00px" viewBox="0 0 1024 1024" version="1.1" xmlns="http://www.w3.org/2000/svg"><path fill="#8a97a0" d="M266.752 683.8784H495.104a34.4576 34.4576 0 0 0 35.7376-33.1776 34.56 34.56 0 0 0-35.7376-36.2496H266.8032a34.4576 34.4576 0 0 0-35.7376 33.1776 34.56 34.56 0 0 0 35.7376 36.2496z m388.096 117.0432H266.752a34.4576 34.4576 0 0 0-36.3008 32.5632 34.6112 34.6112 0 0 0 36.352 36.864h387.9936a34.4576 34.4576 0 0 0 36.352-32.5632 34.6112 34.6112 0 0 0-36.352-36.864zM878.5408 0H145.408C107.5712 0 76.8 31.232 76.8 69.7856v884.4288C76.8 992.768 107.52 1024 145.4592 1024H878.592c37.888 0 68.6592-31.232 68.6592-69.7856V69.7856C947.2 31.232 916.48 0 878.5408 0z m0 156.16v774.7584c0 12.8-10.24 23.296-22.9888 23.296H168.448a23.0912 23.0912 0 0 1-22.9888-23.2448V92.928c0-12.7488 10.24-23.1936 22.9888-23.1936h687.104c12.6976 0 22.9888 10.4448 22.9888 23.1936V156.16zM673.792 153.6c-30.8224 0-61.5424 11.1616-84.8896 33.4848A122.4704 122.4704 0 0 0 504.0128 153.6C437.8624 153.4464 384.1536 204.6976 384 268.0832c-0.0512 30.5664 12.5952 59.904 35.1232 81.408L588.9024 512l169.6768-162.4576c46.6944-44.7488 46.6944-117.76 0-162.4576A122.4704 122.4704 0 0 0 673.792 153.6z m36.608 149.76l-121.4976 116.224-121.4976-116.224a48.128 48.128 0 0 1-2.048-70.0928 53.3504 53.3504 0 0 1 75.2128 0l48.2816 46.1824 48.1792-46.1824c9.728-9.3184 22.9376-14.4896 36.6592-14.336 28.416-0.1536 51.5072 21.8112 51.6096 49.0496v0.3584a48.128 48.128 0 0 1-15.0016 35.0208h0.1024z" /></svg>