<?xml version="1.0" standalone="no"?><!DOCTYPE svg PUBLIC "-//W3C//DTD SVG 1.1//EN" "http://www.w3.org/Graphics/SVG/1.1/DTD/svg11.dtd"><svg class="icon" width="200px" height="200.00px" viewBox="0 0 1024 1024" version="1.1" xmlns="http://www.w3.org/2000/svg"><path fill="#8a97a0" d="M951.282279 649.717929a43.416927 43.416927 0 0 0-43.007333-43.775321h-257.224813a43.775321 43.775321 0 0 0-42.188146 43.826521v255.279243c0 24.217225 19.558097 43.826521 43.724122 43.82652h255.330442c23.961229 0 43.365728-19.455698 43.365728-43.416927V649.717929zM1023.985152 916.465795a108.900712 108.900712 0 0 1-110.743883 107.518333h-269.410224a108.900712 108.900712 0 0 1-108.798314-109.00311v-270.229412c0-60.159068 48.690445-108.951911 108.798314-108.951911h269.410224c60.107868 0 108.849513 48.792844 108.849513 109.003111L1023.985152 916.465795zM418.554536 649.717929a43.416927 43.416927 0 0 0-44.901704-43.775321H118.32239a43.775321 43.775321 0 0 0-42.239345 43.826521v255.279243c0 23.654033 18.68771 43.007333 42.239345 43.82652h255.330442a43.416927 43.416927 0 0 0 44.901704-43.82652v-255.279243z m70.808503 266.747866A109.310306 109.310306 0 0 1 380.513526 1023.984128H109.208931A108.900712 108.900712 0 0 1 0.001024 915.339412V644.751606c0-60.159068 48.741645-108.951911 108.849513-108.951911H380.564725c60.107868 0 108.951911 48.741645 109.156708 109.003111L489.363039 916.465795zM951.282279 116.222199a43.416927 43.416927 0 0 0-44.901704-43.826521h-255.330442a43.775321 43.775321 0 0 0-42.188146 43.826521v255.330442c0 24.217225 19.558097 43.826521 43.724122 43.826521h255.330442c23.961229 0 43.365728-19.455698 43.365728-43.416927V116.222199z m71.166897 264.853494a109.310306 109.310306 0 0 1-109.207907 107.518334h-269.410224a109.310306 109.310306 0 0 1-108.798314-107.518334V109.361505A108.900712 108.900712 0 0 1 643.47265 0H913.241269a108.900712 108.900712 0 0 1 108.849513 109.361505v271.714188h0.358394zM418.554536 116.222199a43.416927 43.416927 0 0 0-44.901704-43.826521H118.32239a43.775321 43.775321 0 0 0-42.239345 43.826521v255.330442c0 23.602834 18.68771 43.007333 42.239345 43.826521h255.330442a43.416927 43.416927 0 0 0 44.901704-43.826521V116.222199z m69.272527 264.853494a109.6687 109.6687 0 0 1-107.313537 107.518334H109.208931A109.310306 109.310306 0 0 1 0.001024 381.024494V109.361505A108.900712 108.900712 0 0 1 108.440943 0H380.564725C440.826191 0 489.670234 48.946441 489.670234 109.361505v271.714188h-1.894371z" /></svg>