<?xml version="1.0" standalone="no"?><!DOCTYPE svg PUBLIC "-//W3C//DTD SVG 1.1//EN" "http://www.w3.org/Graphics/SVG/1.1/DTD/svg11.dtd"><svg class="icon" width="200px" height="200.00px" viewBox="0 0 1024 1024" version="1.1" xmlns="http://www.w3.org/2000/svg"><path fill="#8a97a0" d="M853.211794 707.145143v6.436571-6.436571c16.457143 0 28.818286 12.434286 28.818286 28.891428a28.233143 28.233143 0 0 1-28.818286 28.964572H751.396937a28.16 28.16 0 0 1-28.891428-28.964572V634.002286c0-16.457143 12.288-28.818286 28.891428-28.818286s28.964571 12.361143 28.964572 28.818286v73.142857h72.850285z m134.217143 12.434286c0 123.830857-99.254857 224.621714-221.330286 224.621714-122.075429 0-221.330286-100.790857-221.330285-224.694857 0-123.830857 99.254857-224.548571 221.330285-224.548572 59.099429 0 114.834286 23.405714 156.672 66.048 41.691429 42.203429 64.877714 99.181714 64.585143 158.500572H987.428937z m-221.330286 156.306285v-8.045714c78.701714 0 145.408-67.730286 145.408-147.748571 0-80.091429-66.706286-147.894857-145.408-147.894858-78.628571 0-145.408 67.803429-145.408 147.894858 0 80.018286 66.779429 147.748571 145.408 147.748571v8.045714zM549.303223 870.4v-8.045714c24.137143 0 43.739429 19.968 43.739428 44.324571a44.251429 44.251429 0 0 1-43.885714 44.470857H132.535223A96.841143 96.841143 0 0 1 36.571794 854.016V97.28C36.571794 43.739429 79.652937 0 132.608366 0h625.517714c48.859429 0 89.307429 40.521143 90.112 90.404571v339.382858a43.300571 43.300571 0 0 1-43.008 43.52 43.666286 43.666286 0 0 1-43.300571-43.885715V122.587429c0-21.065143-14.628571-35.84-35.108572-35.84H157.476937c-20.699429 0-28.379429 15.213714-28.379428 35.84v706.194285c0 20.992 7.753143 33.645714 28.379428 33.645715h391.972572v8.045714h-0.073143zM514.706651 495.908571l6.875429 4.754286-6.875429-4.754286c-5.12 10.825143-15.652571 17.188571-29.403428 17.188572H204.873509a21.942857 21.942857 0 0 1-17.261715-9.069714 45.056 45.056 0 0 1-8.923428-28.745143c0.438857-19.748571 13.897143-35.84 30.061714-35.84H490.788937c8.777143 0 16.969143 6.144 21.723429 16.749714 6.729143 14.482286 7.314286 28.818286 2.194285 39.716571zM209.920366 683.593143h217.088c12.8 0 24.137143 13.677714 25.965714 32.329143 1.024 10.24-1.536 20.553143-7.314286 29.037714a28.379429 28.379429 0 0 1-22.820571 12.288H204.873509c-9.508571 0-18.212571-7.021714-22.966858-19.090286a46.811429 46.811429 0 0 1 0-38.034285 30.281143 30.281143 0 0 1 28.086858-16.530286z m504.905143-432.128h7.972571a41.545143 41.545143 0 0 1-42.130286 40.374857H204.727223a42.422857 42.422857 0 0 1-42.057143-39.862857A41.179429 41.179429 0 0 1 204.800366 212.114286h476.013714c23.917714 0 42.130286 18.797714 42.130286 39.350857h-8.045715z" /></svg>