<?xml version="1.0" standalone="no"?><!DOCTYPE svg PUBLIC "-//W3C//DTD SVG 1.1//EN" "http://www.w3.org/Graphics/SVG/1.1/DTD/svg11.dtd"><svg class="icon" width="200px" height="192.30px" viewBox="0 0 1065 1024" version="1.1" xmlns="http://www.w3.org/2000/svg"><path fill="#8a97a0" d="M511.002885 0.255999l21.811102 9.420757 458.749936 217.547821c19.814311 9.420758 32.563053 30.873461 32.563053 54.630155 0 23.756693-12.748743 45.209397-32.511854 54.630154l-200.191099 94.719574 201.880692 88.114803a51.711767 51.711767 0 1 1 0 94.668374l-130.713012 56.831744 130.713012 56.268547a50.994971 50.994971 0 0 1 0 93.695578l-462.077921 199.269504a50.738972 50.738972 0 0 1-40.652617 0L31.005045 820.834706a50.994971 50.994971 0 0 1 0-93.746778l133.887398-54.527755-133.887398-58.572536a51.814167 51.814167 0 0 1 0-94.668374l201.471093-87.807605L32.643438 336.484886C12.880327 327.064128 0.131584 305.765024 0.131584 281.854732c0-23.859093 12.748743-45.209397 32.511854-54.630155L511.002885 0.255999z m235.365341 721.148755l-215.039032 93.695578a50.329374 50.329374 0 0 1-40.857417 0.1024l-208.178263-91.18679-123.237845 49.919775 351.947216 154.162507 357.118393-154.111307-121.753052-52.582163zM333.134885 479.434643l0.255999 0.307198-200.447098 86.937209 377.9567 164.965658 371.915126-164.965658-169.471237-64.35811a56.831744 56.831744 0 0 1-26.265482-21.759903L511.770882 563.453464l-22.2719-9.676756L333.134885 479.485842zM512.12928 90.265194L96.694349 282.008331 512.12928 466.941899l404.631779-184.933568L512.12928 90.265194z" /></svg>