<?xml version="1.0" standalone="no"?><!DOCTYPE svg PUBLIC "-//W3C//DTD SVG 1.1//EN" "http://www.w3.org/Graphics/SVG/1.1/DTD/svg11.dtd"><svg class="icon" width="200px" height="200.00px" viewBox="0 0 1024 1024" version="1.1" xmlns="http://www.w3.org/2000/svg"><path fill="#8a97a0" d="M183.779556 893.269333l258.275555-115.370666c42.183111-18.858667 97.905778-18.830222 139.918222 0l258.247111 115.342222V98.986667H183.751111v794.282666zM85.333333 66.048A65.820444 65.820444 0 0 1 150.869333 0h722.261334A65.649778 65.649778 0 0 1 938.666667 65.792v913.720889c0 36.494222-26.680889 54.101333-60.216889 39.168l-336.412445-150.357333c-16.583111-7.395556-43.264-7.480889-60.046222 0L145.635556 1018.680889C112.355556 1033.528889 85.333333 1016.206222 85.333333 979.512889V66.048zM282.225778 280.462222c0-27.306667 22.186667-49.493333 49.208889-49.493333h361.130666a49.208889 49.208889 0 0 1 49.180445 49.493333 49.408 49.408 0 0 1-49.208889 49.493334H331.463111a49.152 49.152 0 0 1-49.180444-49.208889v-0.284445z m0 230.968889c0-27.306667 22.186667-49.493333 49.208889-49.493333h361.130666a49.208889 49.208889 0 0 1 49.180445 49.493333 49.408 49.408 0 0 1-49.208889 49.493333H331.463111a49.208889 49.208889 0 0 1-49.180444-49.208888v-0.284445z" /></svg>