<?xml version="1.0" standalone="no"?><!DOCTYPE svg PUBLIC "-//W3C//DTD SVG 1.1//EN" "http://www.w3.org/Graphics/SVG/1.1/DTD/svg11.dtd"><svg class="icon" width="200px" height="200.00px" viewBox="0 0 1024 1024" version="1.1" xmlns="http://www.w3.org/2000/svg"><path fill="#8a97a0" d="M804.778667 263.68V92.16h109.482666a10.211556 10.211556 0 0 0 10.097778-10.24V10.24a10.211556 10.211556 0 0 0-10.097778-10.24H109.738667a10.211556 10.211556 0 0 0-10.097778 10.24v71.68c0 5.660444 4.551111 10.24 10.097778 10.24h109.511111V263.708444a294.485333 294.485333 0 0 0 135.537778 248.32 294.485333 294.485333 0 0 0-135.480889 248.263112v171.548444H109.795556a10.211556 10.211556 0 0 0-10.24 10.154667v71.765333c0 5.660444 4.636444 10.24 10.24 10.24h804.408888a10.211556 10.211556 0 0 0 10.24-10.154667V942.08a10.211556 10.211556 0 0 0-10.24-10.24h-109.425777V760.291556a294.485333 294.485333 0 0 0-135.566223-248.32A294.485333 294.485333 0 0 0 804.693333 263.68h0.085334zM713.102222 760.32v171.52H310.784v-171.52c0-54.101333 20.849778-104.874667 58.993778-142.961778a198.798222 198.798222 0 0 1 142.222222-59.249778c53.76 0 104.277333 20.992 142.165333 59.249778a200.874667 200.874667 0 0 1 58.965334 142.933334z m0-496.64c0 54.072889-20.849778 104.874667-58.965333 142.961778a198.769778 198.769778 0 0 1-142.165333 59.221333 198.599111 198.599111 0 0 1-142.165334-59.221333 201.016889 201.016889 0 0 1-59.050666-142.848V92.16h402.261333v171.52h0.085333z" /></svg>