<?xml version="1.0" encoding="UTF-8"?>
<svg width="30px" height="30px" viewBox="0 0 30 30" version="1.1" xmlns="http://www.w3.org/2000/svg" xmlns:xlink="http://www.w3.org/1999/xlink">
    <title>router4-unknow</title>
    <g id="设计规范" stroke="none" stroke-width="1" fill="none" fill-rule="evenodd">
        <g id="图标" transform="translate(-509.000000, -760.000000)">
            <g id="router4-unknow" transform="translate(509.000000, 760.000000)">
                <circle id="椭圆形备份-11" fill="#FFFFFF" cx="15" cy="15" r="14"></circle>
                <path d="M15,30 C6.93907117,30 0.190536156,23.4364286 0.00397038197,15.375 C-0.18473986,7.125 6.37722935,0.188571416 14.624724,0 L15,0 C23.0609288,0 29.8094638,6.56357142 29.9960296,14.625 C30.1847398,22.875 23.6227707,29.8114286 15.375276,30 L15,30 Z M15,1.875 C7.50091296,2.06357142 1.87820603,8.06357142 1.87820603,15.1885714 C2.06477183,22.3114286 7.87618897,28.125 15,28.125 L15.1865658,28.125 C22.499087,27.9364286 28.121794,21.9385714 28.121794,14.8114286 C27.9352282,7.68642858 22.123811,1.875 15,1.875 Z" id="形状" fill="#6E7B84" fill-rule="nonzero"></path>
                <path d="M15.8269332,18.091948 L18.2151499,20.4545455 L16.9274066,21.7283117 L22.9978958,22.8171429 L21.8932141,16.8181818 L20.6054708,18.091948 L18.2172541,15.7272727 L15.8269332,18.091948 Z M14.3540242,11.9101299 L11.7806418,9.36259741 L13.0662809,8.09090909 L7,7 L8.10257759,12.9989611 L9.39032089,11.7272727 L11.7827459,14.091948 L14.3540242,11.9101299 Z M11.9637033,15.7272727 L9.38821673,18.2727273 L8.28563914,17.0010389 L7.1809574,23 L13.2514466,21.9090909 L11.9637033,20.6374026 L14.3540242,18.2727273 L11.9637033,15.7272727 Z M18.2172541,14.2727273 L20.6075749,11.908052 L21.8953183,13.1818182 L23,7.18077923 L17.1146765,8.27376622 L18.4003156,9.54545455 L15.8269332,11.9101299 L18.2172541,14.2727273 Z" id="形状" fill="#6E7B84" fill-rule="nonzero"></path>
            </g>
        </g>
    </g>
</svg>