<?xml version="1.0" encoding="UTF-8"?>
<svg width="26px" height="28px" viewBox="0 0 26 28" version="1.1" xmlns="http://www.w3.org/2000/svg" xmlns:xlink="http://www.w3.org/1999/xlink">
    <title>router2-unknow</title>
    <g id="设计规范" stroke="none" stroke-width="1" fill="none" fill-rule="evenodd">
        <g id="图标" transform="translate(-721.000000, -760.000000)">
            <g id="router2-unknow" transform="translate(721.000000, 760.000000)">
                <polygon id="矩形备份-21" fill="#FFFFFF" points="0 9 26 9 26 18 12.8375836 21 0 18"></polygon>
                <path d="M26,9.79166011 L26,18.4000855 C26,23.5865968 20.1797017,27.7910949 13,27.7910949 C5.93248109,27.7910949 0.182216206,23.7169608 0.0042458968,18.6424716 L0,18.4000855 L0,9.79166011 L0.0357224776,9.79036689 C0.0120475253,10.0219652 0,10.2558998 0,10.491867 C0,15.6783783 5.82029825,19.8828764 13,19.8828764 C20.1797017,19.8828764 26,15.6783783 26,10.491867 C26,10.2558998 25.9879525,10.0219652 25.9642775,9.79036689 L26,9.79166011 Z" id="形状结合备份-3" fill="#6E7B84"></path>
                <ellipse id="椭圆形备份-10" fill="#6E7B84" cx="13" cy="9" rx="13" ry="9"></ellipse>
                <polygon id="路径备份-18" fill="#FFFFFF" fill-rule="nonzero" points="11.3913514 7.87767713 7.55247568 7.87767713 7.82006488 6.39006103 2 8.71828211 6.97612973 11.0566923 7.24371893 9.58435996 11.7670054 9.58435996 11.7670054 9.90022365 11.6383568 12.6411054 9.27636759 12.6411054 13.0689297 16.4110913 16.8512 12.6411054 14.4068757 12.6411054 14.3039568 9.87475077 14.3039568 9.55888708 18.9353081 9.55888708 19.2028973 11.0414086 24.179027 8.70299837 18.3641081 6.35949359 18.6316973 7.84710967 14.2319135 7.84710967 14.0981189 4.74960768 16.0021189 4.74960768 13.0689297 1 10.1203027 4.74960768 11.9625514 4.74960768 11.8339027 7.8623934"></polygon>
            </g>
        </g>
    </g>
</svg>