<?xml version="1.0" encoding="UTF-8"?>
<svg width="40px" height="34px" viewBox="0 0 40 34" version="1.1" xmlns="http://www.w3.org/2000/svg" xmlns:xlink="http://www.w3.org/1999/xlink">
    <title>router1-unknow</title>
    <g id="设计规范" stroke="none" stroke-width="1" fill="none" fill-rule="evenodd">
        <g id="图标" transform="translate(-434.000000, -687.000000)" fill-rule="nonzero">
            <g id="router1-unknow" transform="translate(434.000000, 687.000000)">
                <path d="M0,10.389 L0,23.484 C0.069,28.854 9,34.003 20,34.003 C31,34.003 39.926,28.857 40,23.487 L40,10.389 L0,10.389 Z" id="路径" fill="#6E7B84"></path>
                <path d="M40,10.455 C40,16.228 31.044,21.723 20,21.723 C8.956,21.723 0,16.228 0,10.455 C0,4.682 8.956,0 20,0 C31.044,0 40,4.676 40,10.455 Z" id="路径-2" fill="#8A97A0"></path>
                <path d="M17.943,5.328 L19.295,5.328 L19.295,8.222 L20.677,8.222 L20.651,5.328 L22.005,5.328 L19.958,1.889 L17.943,5.328 Z M20.703,10.173 L19.303,10.173 L19.303,13.557 L17.872,13.557 L20.037,17.001 L22.169,13.557 L20.735,13.557 L20.703,10.173 Z M26.395,8.511 L26.329,7.137 L22.952,9.197 L26.532,11.262 L26.466,9.888 L32.38,9.888 L32.258,8.51 L26.395,8.511 Z M13.583,8.511 L7.727,8.511 L7.619,9.889 L13.533,9.889 L13.481,11.263 L17.038,9.198 L13.638,7.137 L13.583,8.511 Z" id="形状" fill="#FFFFFF"></path>
            </g>
        </g>
    </g>
</svg>