<?xml version="1.0" encoding="UTF-8"?>
<svg width="29px" height="28px" viewBox="0 0 29 28" version="1.1" xmlns="http://www.w3.org/2000/svg" xmlns:xlink="http://www.w3.org/1999/xlink">
    <title>服务器</title>
    <g id="设计规范" stroke="none" stroke-width="1" fill="none" fill-rule="evenodd">
        <g id="图标备份" transform="translate(-161.000000, -550.000000)">
            <g id="服务器" transform="translate(161.000000, 550.000000)">
                <rect id="矩形" fill="#FFFFFF" x="1" y="5" width="27" height="22"></rect>
                <path d="M10.0170746,15.5819535 L10.0170746,15.5819535 C9.55803854,15.5848716 9.18831765,15.953779 9.19127714,16.4059326 C9.19423872,16.8580861 9.56876154,17.2222636 10.0277976,17.2193485 C10.4847333,17.2164447 10.8536109,16.8507625 10.8536109,16.4006686 L10.8536109,16.4006739 C10.8506657,15.9476586 10.4769983,15.5819535 10.0170778,15.5819535 L10.0170746,15.5819535 Z M25.1659125,23.4363307 L25.1659126,23.4363307 C24.7068765,23.4392487 24.3371556,23.8081561 24.3401151,24.2603097 C24.3430767,24.7124632 24.7175995,25.0766407 25.1766356,25.0737256 C25.6335712,25.0708218 26.0024489,24.7051397 26.0024489,24.2550457 L26.0024489,24.2550511 C25.9995037,23.8020358 25.6258362,23.4363307 25.1659157,23.4363307 L25.1659125,23.4363307 Z M22.0771542,21.9573646 L22.0771542,21.9573646 C21.9172286,21.9573646 21.7875833,22.0850661 21.7875833,22.2425939 C21.7875833,22.2425939 21.7875833,22.2425939 21.7875833,22.2425939 L21.7875833,25.8343734 L21.7875833,25.8343735 C21.7875833,25.9919012 21.9172286,26.1196027 22.0771542,26.1196027 C22.2370798,26.1196027 22.3667252,25.9919012 22.3667252,25.8343735 L22.3667252,22.2425939 L22.3667252,22.242545 C22.3667252,22.0850173 22.2370798,21.9573157 22.0771542,21.9573157 C22.0753501,21.9573157 22.073546,21.9573157 22.0717421,21.9573656 L22.0771542,21.9573646 Z M6.78350048,15.5819473 L6.78350051,15.5819473 C6.32446443,15.5848653 5.95474354,15.9537728 5.95770303,16.4059263 C5.96066461,16.8580799 6.33518744,17.2222574 6.79422351,17.2193423 C7.2511592,17.2164384 7.62003682,16.8507563 7.62003682,16.4006623 L7.62003682,16.4006677 C7.61709161,15.9476524 7.24342415,15.5819473 6.7835037,15.5819473 L6.78350048,15.5819473 Z M3.5660314,15.5819482 L3.56603143,15.5819482 C3.10699536,15.5848653 2.73727447,15.9537728 2.74023395,16.4059263 C2.74319553,16.8580799 3.11771836,17.2222574 3.57675443,17.2193423 C4.03369013,17.2164384 4.40256771,16.8507563 4.40256771,16.4006623 L4.40256771,16.4006615 C4.39964374,15.9455897 4.02274918,15.5790167 3.56075047,15.5818975 C3.55893437,15.5819089 3.55711832,15.581926 3.55530233,15.581949 L3.5660314,15.5819482 Z M18.4092243,21.9573646 L18.4092243,21.9573646 C18.2492987,21.9573646 18.1196533,22.0850661 18.1196533,22.2425939 C18.1196533,22.2425939 18.1196533,22.2425939 18.1196533,22.2425939 L18.1196533,25.8343734 L18.1196533,25.8343734 C18.1196533,25.9919012 18.2492987,26.1196027 18.4092243,26.1196027 C18.5691499,26.1196027 18.6987953,25.9919012 18.6987953,25.8343734 L18.6987953,22.2425939 L18.6987953,22.2425952 C18.6989057,22.0850674 18.5693498,21.9572778 18.4094242,21.9571689 C18.4057821,21.9571689 18.4021402,21.9572317 18.3985006,21.9573645 L18.4092243,21.9573646 Z M10.0277534,23.4363315 L10.0277534,23.4363315 C9.5687173,23.4392487 9.19899641,23.8081561 9.20195589,24.2603097 C9.20491747,24.7124632 9.5794403,25.0766407 10.0384764,25.0737256 C10.4954121,25.0708218 10.8642896,24.7051397 10.8642896,24.2550457 L10.8642896,24.2550449 C10.8613657,23.7999731 10.4844711,23.4334 10.0224724,23.4362809 C10.0206563,23.4362923 10.0188403,23.4363094 10.0170243,23.4363324 L10.0277534,23.4363315 Z M6.81028429,23.4363315 L6.8102843,23.4363315 C6.35124822,23.4392487 5.98152733,23.8081561 5.98448682,24.2603097 C5.9874484,24.7124632 6.36197122,25.0766407 6.8210073,25.0737256 C7.27794299,25.0708218 7.6468206,24.7051397 7.6468206,24.2550457 L7.6468206,24.2550508 C7.64409948,23.799979 7.26736847,23.433241 6.80536975,23.4359082 C6.79807009,23.4359652 6.79077131,23.4361016 6.78347527,23.4363322 L6.81028429,23.4363315 Z M20.2592343,21.9573646 L20.2592343,21.9573646 C20.0993087,21.9573646 19.9696633,22.0850661 19.9696633,22.2425939 C19.9696633,22.2425939 19.9696633,22.2425939 19.9696633,22.2425939 L19.9696633,25.8343734 L19.9696633,25.8343734 C19.9696633,25.9919012 20.0993087,26.1196027 20.2592343,26.1196027 C20.4191599,26.1196027 20.5488063,25.9919012 20.5488063,25.8343734 L20.5488063,22.2425939 L20.5488063,22.2425919 C20.5492435,22.0850647 20.4199539,21.9570135 20.2600289,21.9565809 C20.252606,21.9565809 20.2451851,21.9568231 20.2377826,21.9573648 L20.2592343,21.9573646 Z M3.57673861,23.4363315 L3.57673864,23.4363315 C3.11770257,23.4392487 2.74798168,23.8081561 2.75094116,24.2603097 C2.75390274,24.7124632 3.12842557,25.0766407 3.58746164,25.0737256 C4.04439734,25.0708218 4.41327503,24.7051397 4.41327503,24.2550457 L4.41327503,24.2550194 C4.41349907,23.8028565 4.04155157,23.4361279 3.58250602,23.4359069 C3.57342264,23.4359069 3.56433983,23.4360449 3.55526119,23.4363338 L3.57673861,23.4363315 Z M14.7466638,14.1082826 L14.7466638,14.1082826 C14.5867382,14.1082826 14.4570928,14.2359841 14.4570928,14.3935118 C14.4570928,14.3935118 14.4570928,14.3935118 14.4570928,14.3935118 L14.4570928,17.958878 L14.4570928,17.9588781 C14.4570928,18.1164058 14.5867382,18.2441074 14.7466638,18.2441074 C14.9065894,18.2441074 15.0362347,18.1164058 15.0362347,17.9588781 L15.0362347,14.3670985 L15.0362347,14.3670987 C15.025112,14.2099523 14.8867637,14.0914417 14.7272253,14.1023974 C14.7247649,14.1025664 14.7223068,14.1027663 14.7198516,14.1029971 L14.7466638,14.1082826 Z M14.7466638,21.9626597 L14.7466638,21.9626597 C14.5867382,21.9626597 14.4570928,22.0903612 14.4570928,22.247889 C14.4570928,22.247889 14.4570928,22.247889 14.4570928,22.247889 L14.4570928,25.8396685 L14.4570928,25.8396685 C14.4570928,25.9971963 14.5867382,26.1248978 14.7466638,26.1248978 C14.9065894,26.1248978 15.0362347,25.9971963 15.0362347,25.8396685 L15.0362347,22.247889 L15.0362347,22.2478889 C15.0398872,22.0904022 14.9132367,21.9598176 14.7533525,21.9562199 C14.7421721,21.9559684 14.7309863,21.956355 14.7198512,21.9573778 L14.7466638,21.9626597 Z M16.585976,21.9626597 L16.585976,21.9626597 C16.4260504,21.9626597 16.2964051,22.0903612 16.2964051,22.247889 C16.2964051,22.247889 16.2964051,22.247889 16.2964051,22.247889 L16.2964051,25.8396685 L16.2964051,25.8396686 C16.2964051,25.9971963 16.4260504,26.1248979 16.585976,26.1248979 C16.7459016,26.1248979 16.875547,25.9971963 16.875547,25.8396686 L16.875547,22.247889 L16.875547,22.247889 C16.8791994,22.0904023 16.7525489,21.9598177 16.5926647,21.95622 C16.5814843,21.9559684 16.5702986,21.956355 16.5591635,21.9573778 L16.585976,21.9626597 Z M20.2646132,6.25919431 L20.2646131,6.25919431 C20.1046875,6.25919432 19.9750422,6.38689584 19.9750422,6.54442361 C19.9750422,6.54442362 19.9750422,6.54442363 19.9750422,6.54442364 L19.9750422,10.1362031 L19.9750422,10.1362032 C19.9750422,10.2937309 20.1046875,10.4214325 20.2646131,10.4214325 C20.4245387,10.4214325 20.5541841,10.2937309 20.5541841,10.1362032 L20.5541841,6.54442366 L20.5541841,6.54442354 C20.5578365,6.38693684 20.4311861,6.25635224 20.2713018,6.25275455 C20.2601215,6.25250297 20.2489357,6.25288957 20.2378006,6.25391242 L20.2646132,6.25919431 Z M16.585976,6.25919431 L16.585976,6.25919431 C16.4260504,6.2591943 16.2964051,6.38689584 16.2964051,6.54442361 C16.2964051,6.54442363 16.2964051,6.54442364 16.2964051,6.54442366 L16.2964051,10.1362032 L16.2964051,10.1362032 C16.2964051,10.293731 16.4260504,10.4214325 16.585976,10.4214325 C16.7459016,10.4214325 16.875547,10.293731 16.875547,10.1362032 L16.875547,6.54442371 L16.875547,6.54442358 C16.8791994,6.38693688 16.7525489,6.25635229 16.5926647,6.2527546 C16.5814843,6.25250302 16.5702986,6.25288962 16.5591635,6.25391246 L16.585976,6.25919431 Z M18.4252883,6.25919431 L18.4252883,6.25919431 C18.2653627,6.2591943 18.1357173,6.38689584 18.1357173,6.54442361 C18.1357173,6.54442363 18.1357173,6.54442364 18.1357173,6.54442366 L18.1357173,10.1362032 L18.1357173,10.1362032 C18.1357173,10.293731 18.2653627,10.4214325 18.4252883,10.4214325 C18.5852139,10.4214325 18.7148592,10.293731 18.7148592,10.1362032 L18.7148592,6.54442371 L18.7148592,6.54442358 C18.7185117,6.38693688 18.5918612,6.25635229 18.431977,6.2527546 C18.4207966,6.25250302 18.4096108,6.25288962 18.3984757,6.25391246 L18.4252883,6.25919431 Z M10.0438173,7.73816125 L10.0438173,7.73816125 C9.58478127,7.74107843 9.21506038,8.10998588 9.21801986,8.56213943 C9.22098145,9.01429298 9.59550427,9.37847049 10.0545403,9.37555538 C10.511476,9.37265154 10.8803441,9.00696942 10.8803536,8.55687543 L10.8803536,8.55687357 C10.8835519,8.1018049 10.5116213,7.73034428 10.0496258,7.72719272 C10.0387492,7.72711855 10.027872,7.72725335 10.0170007,7.72759702 L10.0438173,7.73816125 Z M14.7520206,6.25919431 L14.7520205,6.25919431 C14.5920949,6.25919432 14.4624496,6.38689584 14.4624496,6.54442361 C14.4624496,6.54442362 14.4624496,6.54442363 14.4624496,6.54442364 L14.4624496,10.1362031 L14.4624496,10.1362032 C14.4624496,10.293731 14.5920949,10.4214325 14.7520205,10.4214325 C14.9119461,10.4214325 15.0415915,10.293731 15.0415915,10.1362032 L15.0415915,6.54442368 L15.0415915,6.54442353 C15.0455487,6.38694399 14.9191512,6.2561217 14.7592743,6.25222379 C14.7461077,6.25190278 14.7329342,6.25246695 14.7198455,6.25391239 L14.7520206,6.25919431 Z M29,11.1556189 L29,5.56196287 L29,5.56193824 C29,5.11764647 28.7354691,4.7146485 28.3243119,4.53195775 L23.6107709,0 L5.37850928,0 L0.691752069,4.53724664 L0.691752072,4.53724664 C0.280598386,4.71994579 0.0162313824,5.12295092 0.0160860928,5.56724269 L0.0160860928,11.3193788 L0.0160860657,11.3193786 C0.0986692881,11.8750016 0.582825929,12.286664 1.15292009,12.2859889 L1.15292012,12.2859889 C0.51826686,12.2859822 0.00295002875,12.7912118 0,13.4163432 L0,19.0152881 L0,19.015288 C0,19.6424821 0.516179112,20.1509219 1.15292012,20.150925 C1.15292013,20.150925 1.15292014,20.150925 1.15292015,20.150925 L1.15292013,20.150925 C0.518266874,20.1509182 0.00295004292,20.6561479 0,21.2812793 L0,26.8696464 L0,26.8696395 C0.0029479664,27.4947709 0.518260524,28 1.15291378,28 L27.8095383,28 L27.8095384,28 C28.4441948,28 28.9595148,27.4947802 28.9624679,26.8696457 L28.9624679,21.2654119 L28.962468,21.2654187 C28.95952,20.6402873 28.4442074,20.1350551 27.8095542,20.1350582 L27.8095542,20.1350582 C28.446292,20.1350544 28.962468,19.6266153 28.962468,18.9994243 L28.962468,13.4163149 L28.962468,13.4163218 C28.95952,12.7911904 28.4442075,12.2859582 27.8095542,12.2859613 L27.8095543,12.2859613 C28.4462669,12.2917956 28.9672279,11.7881055 28.97315,11.1609394 C28.9731834,11.1574018 28.9732001,11.153864 28.9731999,11.1503262 L29,11.1556189 Z M28.0508517,21.270686 L28.0508517,26.8590532 L28.0508517,26.8590532 C28.0508517,26.9699062 27.9596196,27.05977 27.8470796,27.05977 C27.8470796,27.05977 27.8470796,27.05977 27.8470796,27.05977 L1.16363965,27.05977 L1.16363964,27.05977 C1.05109928,27.05977 0.959867542,26.9699058 0.959867542,26.8590532 C0.959867542,26.8590532 0.959867542,26.8590532 0.959867542,26.8590532 L0.959867542,21.2653971 L0.959867542,21.2653972 C0.959867542,21.1545442 1.05109928,21.0646803 1.16363964,21.0646803 C1.16363964,21.0646803 1.16363964,21.0646803 1.16363964,21.0646803 L27.8202642,21.0646803 L27.8202642,21.0646803 C27.9328045,21.0646803 28.0240363,21.1545445 28.0240363,21.2653972 L28.0508517,21.270686 Z M28.0508517,13.4163089 L28.0508517,19.0152538 L28.0508517,19.0152538 C28.0508517,19.1261068 27.9596196,19.2159707 27.8470796,19.2159707 C27.8470796,19.2159707 27.8470796,19.2159707 27.8470796,19.2159707 L1.16363965,19.2159707 L1.16363964,19.2159707 C1.05109928,19.2159707 0.959867542,19.1261065 0.959867542,19.0152538 C0.959867542,19.0152538 0.959867542,19.0152538 0.959867542,19.0152538 L0.959867542,13.4163089 L0.959867542,13.4163089 C0.959867542,13.3054559 1.0510996,13.215592 1.16363964,13.215592 L27.8202642,13.215592 L27.8202642,13.215592 C27.9328045,13.215592 28.0240363,13.3054559 28.0240363,13.4163089 L28.0508517,13.4163089 Z M28.0508517,11.1503207 L28.0508517,11.1503207 C28.0508517,11.2611736 27.9596196,11.3510375 27.8470796,11.3510375 L1.16363965,11.3510375 L1.16363964,11.3510375 C1.05109928,11.3510375 0.959867543,11.2611733 0.959867543,11.1503207 L0.959867543,5.56195351 L0.959867543,5.56195348 C0.959867543,5.45110049 1.0510996,5.36123662 1.16363964,5.36123662 L27.8202642,5.36123662 L27.8202642,5.36123662 C27.9328045,5.36123662 28.0240363,5.4511008 28.0240363,5.56195348 L28.0508517,11.1503207 Z M25.1926774,7.72756791 L25.1926774,7.72756791 C24.7336413,7.73048509 24.3639204,8.09939254 24.3668799,8.55154609 C24.3698415,9.00369964 24.7443643,9.36787715 25.2034004,9.36496204 C25.6603361,9.3620582 26.0292137,8.99637608 26.0292137,8.54628209 L26.0292137,8.54628717 C26.0264926,8.09121539 25.6497616,7.72447744 25.1877628,7.7271446 C25.1804632,7.72720157 25.1731644,7.72733803 25.1658684,7.72756857 L25.1926774,7.72756791 Z M22.1039191,6.24860098 L22.1039191,6.24860098 C21.9439935,6.24860098 21.8143481,6.3763025 21.8143481,6.53383027 C21.8143481,6.53383027 21.8143481,6.53383027 21.8143481,6.53383027 L21.8143481,10.1256098 L21.8143481,10.1256098 C21.8143481,10.2831376 21.9439935,10.4108391 22.1039191,10.4108391 C22.2638447,10.4108391 22.39349,10.2831376 22.39349,10.1256098 L22.39349,6.53383031 L22.39349,6.53383015 C22.39152,6.3763142 22.2602873,6.25019561 22.100374,6.25213601 C22.0908074,6.2522521 22.0812524,6.25283513 22.0717444,6.25388295 L22.1039191,6.24860098 Z M3.79661226,7.75397815 L3.79661231,7.75397815 C3.73779372,7.74777543 3.67847073,7.74777543 3.61965214,7.75397814 L3.61965216,7.75397814 C3.16061609,7.75106095 2.78609117,8.11524054 2.78313168,8.56739409 C2.78312011,8.56916043 2.78311435,8.57092679 2.78311438,8.57269319 L2.78311435,8.57269369 C2.78055758,8.60786202 2.78055759,8.64316537 2.78311437,8.67833369 L2.78311439,8.67833383 C2.84643222,9.12617538 3.26633486,9.43866176 3.7209933,9.37629328 C4.17565174,9.31392481 4.49289467,8.90031794 4.42957684,8.45247639 C4.38361986,8.12742735 4.14504396,7.86082055 3.82342561,7.77510629 L3.79661226,7.75397815 Z M20.2646163,14.0924034 L20.2646163,14.0924034 C20.1046907,14.0924034 19.9750453,14.220105 19.9750453,14.3776327 C19.9750453,14.3776327 19.9750453,14.3776327 19.9750453,14.3776328 L19.9750453,17.9588345 L19.9750453,17.9588345 C19.9750453,18.1163623 20.1046907,18.2440638 20.2646163,18.2440638 C20.4245419,18.2440638 20.5541873,18.1163623 20.5541873,17.9588345 L20.5541873,14.367055 L20.5541873,14.3670551 C20.5430645,14.2099088 20.4047162,14.0913981 20.2451778,14.1023539 C20.2427174,14.1025229 20.2402594,14.1027228 20.2378042,14.1029536 L20.2646163,14.0924034 Z M18.4253041,14.0924034 L18.4253041,14.0924034 C18.2653785,14.0924034 18.1357331,14.220105 18.1357331,14.3776327 C18.1357331,14.3776327 18.1357331,14.3776328 18.1357331,14.3776328 L18.1357331,17.9588345 L18.1357331,17.9588346 C18.1357331,18.1163623 18.2653785,18.2440639 18.4253041,18.2440639 C18.5852297,18.2440639 18.714875,18.1163623 18.714875,17.9588346 L18.714875,14.367055 L18.714875,14.3670552 C18.7037523,14.2099088 18.565404,14.0913982 18.4058656,14.1023539 C18.4034052,14.1025229 18.4009471,14.1027228 18.3984919,14.1029536 L18.4253041,14.0924034 Z M6.81028745,7.71698702 L6.81028745,7.71698702 C6.35125138,7.7199042 5.98153049,8.08881164 5.98448997,8.5409652 C5.98745156,8.99311875 6.36197438,9.35729626 6.82101046,9.35438114 C7.27794615,9.35147731 7.64682374,8.98579519 7.64682374,8.53570119 L7.64682374,8.53570183 C7.6381793,8.08070161 7.25670546,7.71875166 6.79477938,7.72726678 C6.79101019,7.72733625 6.78724151,7.72743083 6.78347361,7.72755049 L6.81028745,7.71698702 Z M22.0985718,14.0924034 L22.0985718,14.0924034 C21.9386462,14.0924034 21.8090008,14.220105 21.8090008,14.3776327 C21.8090008,14.3776327 21.8090008,14.3776327 21.8090008,14.3776328 L21.8090008,17.9588345 L21.8090008,17.9588345 C21.8090008,18.1163623 21.9386462,18.2440638 22.0985718,18.2440638 C22.2584974,18.2440638 22.3881427,18.1163623 22.3881427,17.9588345 L22.3881427,14.367055 L22.3881427,14.3670551 C22.37702,14.2099088 22.2386717,14.0913981 22.0791333,14.1023539 C22.0766729,14.1025229 22.0742148,14.1027228 22.0717596,14.1029536 L22.0985718,14.0924034 Z M16.5860013,14.0924034 L16.5860013,14.0924034 C16.4260757,14.0924034 16.2964303,14.220105 16.2964303,14.3776327 C16.2964303,14.3776327 16.2964303,14.3776328 16.2964303,14.3776328 L16.2964303,17.9588345 L16.2964303,17.9588346 C16.2964303,18.1163623 16.4260757,18.2440639 16.5860013,18.2440639 C16.7459269,18.2440639 16.8755723,18.1163623 16.8755723,17.9588346 L16.8755723,14.367055 L16.8755723,14.3670552 C16.8644495,14.2099088 16.7261012,14.0913982 16.5665628,14.1023539 C16.5641024,14.1025229 16.5616443,14.1027228 16.5591891,14.1029536 L16.5860013,14.0924034 Z M25.1658873,15.5713704 L25.1658873,15.5713704 C24.7068512,15.5742876 24.3371303,15.943195 24.3400898,16.3953485 C24.3430514,16.8475021 24.7175742,17.2116796 25.1766103,17.2087645 C25.633546,17.2058607 26.0024236,16.8401785 26.0024236,16.3900845 L26.0024236,16.3900835 C25.9936576,15.9412028 25.6216827,15.5818506 25.1658841,15.5819346 L25.1658873,15.5713704 Z" id="形状" fill="#8A97A0" fill-rule="nonzero"></path>
            </g>
        </g>
    </g>
</svg>