<?xml version="1.0" encoding="UTF-8"?>
<svg width="40px" height="29px" viewBox="0 0 40 29" version="1.1" xmlns="http://www.w3.org/2000/svg" xmlns:xlink="http://www.w3.org/1999/xlink">
    <title>服务器</title>
    <g id="设计规范" stroke="none" stroke-width="1" fill="none" fill-rule="evenodd">
        <g id="图标备份" transform="translate(-155.000000, -691.000000)">
            <g id="服务器" transform="translate(175.063409, 705.337185) rotate(-270.000000) translate(-175.063409, -705.337185) translate(161.000000, 686.000000)">
                <rect id="矩形" fill="#FFFFFF" x="2" y="2" width="25" height="35"></rect>
                <path d="M22.2671197,18.7511976 C22.9143587,18.7511976 23.4390507,18.2265486 23.4390507,17.5792665 L23.4390507,8.20368923 C23.4390507,7.5564502 22.9143157,7.03171521 22.2671197,7.03171521 C21.6198377,7.03171521 21.0951456,7.5564502 21.0951456,8.20368923 L21.0951456,17.5792665 C21.0951456,18.2265486 21.6198377,18.7511976 22.2671197,18.7511976 Z M5.85978416,32.814628 L22.2671197,32.814628 C22.9143587,32.814628 23.4390507,32.289936 23.4390507,31.642654 L23.4390507,24.6110247 C23.4390507,23.9637857 22.9143157,23.4390937 22.2671197,23.4390937 L5.85978416,23.4390937 C5.21254513,23.4390937 4.68785311,23.9638287 4.68785311,24.6110247 L4.68785311,31.642697 C4.68785311,32.289979 5.21250216,32.814628 5.85978416,32.814628 Z M7.03171521,25.7829128 L21.0951456,25.7829128 L21.0951456,30.470723 L7.03171521,30.470723 L7.03171521,25.7829128 Z M25.7829558,0 L2.34390507,0 C1.04938403,0 0,1.04938403 0,2.34390507 L0,36.3304642 C0,37.6249852 1.04938403,38.6743692 2.34390507,38.6743692 L25.7829128,38.6743692 C27.0774768,38.6743692 28.1268179,37.6249852 28.1268179,36.3304642 L28.1268179,2.34394804 C28.1268179,1.049427 27.0775198,0 25.7829558,0 Z M25.7829558,36.3305071 L2.34390507,36.3305071 L2.34390507,2.34394804 L25.7829558,2.34394804 L25.7829558,36.3305071 L25.7829558,36.3305071 Z M17.5793095,18.7511976 C18.2265915,18.7511976 18.7512406,18.2265486 18.7512406,17.5792665 L18.7512406,8.20368923 C18.7512406,7.5564502 18.2265915,7.03171521 17.5793095,7.03171521 C16.9320705,7.03171521 16.4073785,7.5564502 16.4073785,8.20368923 L16.4073785,17.5792665 C16.4073355,18.2265486 16.9320275,18.7511976 17.5793095,18.7511976 Z" id="形状" fill="#8A97A0" fill-rule="nonzero"></path>
            </g>
        </g>
    </g>
</svg>