<?xml version="1.0" encoding="UTF-8"?>
<svg width="32px" height="34px" viewBox="0 0 32 34" version="1.1" xmlns="http://www.w3.org/2000/svg" xmlns:xlink="http://www.w3.org/1999/xlink">
    <title>编组 3备份</title>
    <g id="设计规范" stroke="none" stroke-width="1" fill="none" fill-rule="evenodd">
        <g id="图标备份" transform="translate(-161.000000, -478.000000)">
            <g id="编组-3备份" transform="translate(161.000000, 478.000000)">
                <g id="编组-2" transform="translate(0.000000, 1.000000)" fill="#FFFFFF">
                    <rect id="矩形" x="3" y="0" width="25" height="5.29411765"></rect>
                    <rect id="矩形" x="0" y="7.29411765" width="32" height="20"></rect>
                    <rect id="矩形备份-22" x="3" y="12.3529412" width="25" height="5.29411765"></rect>
                    <rect id="矩形备份-23" x="3" y="24.7058824" width="25" height="5.29411765"></rect>
                </g>
                <path d="M0,22.1 L31.9429812,22.1 L31.9429812,12.4666777 L0,12.4666777 L0,22.1 Z M25.3262297,15.8666777 C26.1247933,15.8666777 26.7522672,16.49 26.809286,17.2266777 C26.809286,18.02 26.1818455,18.6433555 25.4403006,18.7 C24.6987557,18.7566445 24.0142965,18.0766777 23.9572443,17.34 C23.9572443,16.5466777 24.5846848,15.8666777 25.3262297,15.8666777 Z M20.7629562,15.8666777 C21.3333779,15.8666777 21.8467474,16.2066777 22.0748894,16.7166777 C22.3030647,17.2266777 22.1889938,17.85 21.7896952,18.2466777 C21.3903967,18.6433555 20.7629562,18.7566777 20.2495867,18.5866777 C19.7362171,18.36 19.3369186,17.85 19.3369186,17.2833555 C19.3939708,16.49 20.0214113,15.8666777 20.7629562,15.8666777 L20.7629562,15.8666777 Z M4.56330691,15.8666777 L12.5490439,15.8666777 L12.5490439,18.7 L4.56330691,18.7 L4.56330691,15.8666777 L4.56330691,15.8666777 Z M29.5472568,0 L2.4527432,0 C1.14081002,0 0.0570187761,1.07667773 0.0570187761,2.38 L0.0570187761,9.63332227 L32,9.63332227 L32,2.38 C31.9429478,1.07667773 30.85919,0 29.5472234,0 L29.5472568,0 Z M12.5490104,6.23332227 L4.56327348,6.23332227 L4.56327348,3.4 L12.5490104,3.4 L12.5490104,6.23332227 Z M20.8769937,6.23332227 C20.3636242,6.23332227 19.8502547,6.00664453 19.5650605,5.55332227 C19.2798664,5.1 19.279833,4.59 19.5080083,4.13664453 C19.7361837,3.68328906 20.2495532,3.4 20.7629228,3.4 C21.5044342,3.4 22.1319081,4.02332227 22.1889269,4.76 C22.2459791,5.55332227 21.6755574,6.17664453 20.8769937,6.23332227 Z M25.4402672,6.23332227 C24.6417035,6.23332227 24.0142296,5.61 23.9572109,4.87332227 C23.9572109,4.08 24.5846513,3.45664453 25.3261962,3.4 C26.1247599,3.4 26.7522004,4.02332227 26.8092526,4.76 C26.8092526,5.55332227 26.1818121,6.23332227 25.4402672,6.23332227 Z M2.39572443,24.3666777 L0,24.3666777 L0,32.3 C0,33.2633223 0.741544892,34 1.71123173,34 L30.2317495,34 C31.1444176,34 31.9429812,33.2633223 31.9429812,32.3 L31.9429812,24.3666777 L2.39572443,24.3666777 Z M12.5490439,30.6 L4.56330691,30.6 L4.56330691,27.7666777 L12.5490439,27.7666777 L12.5490439,30.6 Z M20.8200084,30.6 C20.0214447,30.6 19.3939708,29.9766777 19.3939708,29.1833223 C19.3939708,28.3899668 20.0214447,27.7666777 20.8200084,27.7666777 C21.618572,27.7666777 22.246046,28.39 22.246046,29.1833223 C22.246046,29.9766445 21.618572,30.6 20.8200084,30.6 L20.8200084,30.6 Z M25.3832819,30.6 C24.5847182,30.6 23.9572443,29.9766777 23.9572443,29.1833223 C23.9572443,28.3899668 24.5847182,27.7666777 25.3832819,27.7666777 C26.1818455,27.7666777 26.8093194,28.39 26.8093194,29.1833223 C26.8093194,29.9766445 26.1818455,30.6 25.3832819,30.6 L25.3832819,30.6 Z" id="形状" fill="#8A97A0" fill-rule="nonzero"></path>
            </g>
        </g>
    </g>
</svg>