<?xml version="1.0" standalone="no"?><!DOCTYPE svg PUBLIC "-//W3C//DTD SVG 1.1//EN" "http://www.w3.org/Graphics/SVG/1.1/DTD/svg11.dtd"><svg class="icon" width="200px" height="189.63px" viewBox="0 0 1080 1024" version="1.1" xmlns="http://www.w3.org/2000/svg"><path fill="#8a97a0" d="M1022.947585 316.94764V63.429349H67.553679v253.546735h955.422349zM14.506264 663.135357c-4.835421-9.756173-4.835421-19.512347-9.670843-34.132385v-248.654426c0-9.756173 4.835421-19.512347 4.835421-34.132385-4.835421-9.784617-4.835421-19.540791-9.642398-29.268521V63.429349C0 29.26852 28.984084 0 62.718258 0h955.422349C1051.846338 0 1080.858865 29.296964 1080.858865 63.400906v253.546734c0 9.72773-4.835421 19.483903-4.835421 34.132386 4.835421 9.756173 4.835421 19.512347 4.835421 34.132385v253.546735c0 9.756173-4.835421 19.512347-4.835421 34.132385 4.835421 9.72773 4.835421 19.483903 4.835421 34.132385v253.546735c0 34.132385-28.984084 63.400906-62.718258 63.400905H67.553679C33.762618 1023.971556 4.835421 994.674592 4.835421 960.570651v-258.439044c-4.835421-19.512347 0-24.404655 9.670843-38.967806z m1008.469764 287.67912v-253.546734H67.553679v253.546734h955.422349z m0-316.94764v-253.518291H67.553679v253.518291h955.422349zM159.227577 190.145829a33.108414 33.108414 0 0 0 33.791061-34.075498 33.165301 33.165301 0 0 0-33.791061-34.160828c-19.284798 0-28.927196 14.620038-28.927196 34.132385 0 19.483903 14.47782 34.132385 28.927196 34.132385v-0.056887z m125.436516 0a33.108414 33.108414 0 0 0 33.819505-34.075498 33.165301 33.165301 0 0 0-33.791062-34.160828c-14.506264 0-28.95564 14.620038-28.95564 34.132385 0 19.483903 14.449376 34.132385 28.95564 34.132385v-0.056887z m299.170356-34.075498c0-19.540791 14.506264-34.160829 33.762618-34.160828H936.080664c19.341685 0 33.762618 14.620038 33.762618 34.132385a33.165301 33.165301 0 0 1-33.70573 34.132385H617.597067c-24.148663 0-33.70573-14.648482-33.705731-34.132385h-0.056887zM159.284464 507.065026a33.136857 33.136857 0 0 0 33.734174-34.103942 33.165301 33.165301 0 0 0-33.734174-34.103941 33.108414 33.108414 0 0 0-33.791061 34.132385c4.835421 19.512347 19.313241 34.103942 33.762618 34.103942h0.028443z m125.436516 0a33.108414 33.108414 0 0 0 33.791061-34.103942 33.165301 33.165301 0 0 0-33.791061-34.103941 33.108414 33.108414 0 0 0-33.762618 34.132385c4.835421 19.512347 19.256354 34.103942 33.762618 34.103942zM583.834449 477.853393c0-19.512347 14.506264-34.132385 33.762618-34.132385H936.080664c19.341685 0 33.762618 14.620038 33.762618 34.075498A33.165301 33.165301 0 0 1 936.137552 511.985778H617.597067c-24.148663-4.863865-33.70573-19.45546-33.705731-34.132385h-0.056887zM159.284464 824.012666a33.136857 33.136857 0 0 0 33.734174-34.075498c0-19.540791-14.449376-29.296964-33.734174-29.296964a33.108414 33.108414 0 0 0-33.791061 34.160829c0 19.483903 19.313241 29.240077 33.762618 29.240077h0.028443z m125.436516 0a33.108414 33.108414 0 0 0 33.791061-34.075498c0-19.540791-14.506264-29.296964-33.791061-29.296964a33.108414 33.108414 0 0 0-33.762618 34.160829c0 19.483903 19.256354 29.240077 33.762618 29.240077z m299.141913-29.211633c0-19.512347 14.506264-34.132385 33.762617-34.132385H936.080664c19.341685 0 33.762618 14.620038 33.762618 34.132385a33.165301 33.165301 0 0 1-33.70573 34.132386H617.597067c-24.148663-4.892309-33.70573-19.540791-33.705731-34.132386h-0.056887z" /></svg>