<?xml version="1.0" standalone="no"?><!DOCTYPE svg PUBLIC "-//W3C//DTD SVG 1.1//EN" "http://www.w3.org/Graphics/SVG/1.1/DTD/svg11.dtd"><svg class="icon" width="200px" height="200.00px" viewBox="0 0 1024 1024" version="1.1" xmlns="http://www.w3.org/2000/svg"><path fill="#8a97a0" d="M720.672125 267.343028a38.764164 38.764164 0 0 1-40.031922 39.788123H188.701023a39.934403 39.934403 0 0 1-40.031922-39.788123c0-21.941979 17.894903-39.788123 39.983162-39.788123H680.688963a42.76248 42.76248 0 0 1 39.983162 39.788123z m-114.390852 181.87463a38.764164 38.764164 0 0 1-40.031923 39.836883H188.701023a38.812924 38.812924 0 0 1-40.031922-39.788123 38.764164 38.764164 0 0 1 39.983162-39.788123h377.548327a42.76248 42.76248 0 0 1 39.983163 39.788123z m-114.390853 181.92339a38.764164 38.764164 0 0 1-40.031923 39.788122H188.701023a39.934403 39.934403 0 0 1-40.031922-39.788122c0-21.941979 17.894903-39.788123 39.983162-39.788123h263.157474a42.76248 42.76248 0 0 1 39.983163 39.788123z m526.168667 375.207849a43.05504 43.05504 0 0 1-57.195426 11.361069l-125.800683-79.576246a42.46992 42.46992 0 0 1-11.458589-56.854106c11.458589-22.722139 34.327008-22.722139 57.195427-11.36107l125.800682 85.2324a36.813766 36.813766 0 0 1 11.458589 51.197953z m-320.25538 11.361069a287.586211 287.586211 0 0 1-68.654016-11.361069 203.767849 203.767849 0 0 1-120.095767-108.003299 219.907394 219.907394 0 0 1-11.45859-159.201251 203.37777 203.37777 0 0 1 108.685939-119.364369c103.517383-50.466553 228.586666-7.996633 279.394538 94.838112l0.877679 1.804118a219.907394 219.907394 0 0 1 11.40983 159.152491 203.37777 203.37777 0 0 1-108.685939 119.413128 240.874175 240.874175 0 0 1-91.473674 22.722139z m0-341.075881c-19.503982 1.023959-38.812924 4.875995-57.195427 11.361069a124.825483 124.825483 0 0 0-68.654015 73.920091 127.75108 127.75108 0 0 0 5.704914 102.298385 124.971763 124.971763 0 0 0 74.358931 68.263936c33.644369 12.336268 70.945734 10.23959 102.981023-5.704915a124.825483 124.825483 0 0 0 68.605256-73.920091 127.75108 127.75108 0 0 0-5.704915-102.347144 124.191604 124.191604 0 0 0-120.095767-73.871331zM463.219566 1023.366121H51.490512C22.868419 1023.366121 0 989.282912 0 960.855859V62.6975A64.46066 64.46066 0 0 1 68.654016 0.187238h749.245458a68.458976 68.458976 0 0 1 68.654016 62.510262v477.506233c0 21.941979-17.943663 39.788123-40.080682 39.788123a39.934403 39.934403 0 0 1-39.983163-39.788123V79.763484H74.31017v869.731306H463.219566a38.812924 38.812924 0 0 1 40.031923 39.788122 41.689761 41.689761 0 0 1-39.983163 34.131969z" /></svg>