<?xml version="1.0" standalone="no"?><!DOCTYPE svg PUBLIC "-//W3C//DTD SVG 1.1//EN" "http://www.w3.org/Graphics/SVG/1.1/DTD/svg11.dtd"><svg class="icon" width="200px" height="200.00px" viewBox="0 0 1024 1024" version="1.1" xmlns="http://www.w3.org/2000/svg"><path fill="#8a97a0" d="M646.83008 86.869333h0.426667-0.426667m-59.904-1.450666v68.266666c0 32.981333 18.986667 62.976 48.768 77.141334 21.162667 10.026667 42.026667 21.376 61.866667 33.706666a85.333333 85.333333 0 0 0 90.24-0.085333l54.613333-34.133333 75.818667 132.650666-61.056 38.186667a85.418667 85.418667 0 0 0-40.106667 72.362667V550.4a85.333333 85.333333 0 0 0 40.149333 72.405333l61.098667 38.144-75.861333 132.693334-54.613334-34.133334a85.418667 85.418667 0 0 0-92.586666 1.322667l-8.96 6.058667c-9.514667 6.485333-27.306667 18.645333-34.688 20.522666a85.333333 85.333333 0 0 0-64.725334 82.773334v68.096h-149.12v-68.181334c0-33.024-19.029333-63.061333-48.938666-77.141333a607.146667 607.146667 0 0 1-61.525334-33.621333 85.034667 85.034667 0 0 0-90.453333 0l-54.656 34.218666-75.818667-132.693333 61.013334-38.058667c25.002667-15.573333 40.149333-42.965333 40.149333-72.405333v-76.885333c0-29.44-15.146667-56.789333-40.106667-72.362667l-61.184-38.186667L179.50208 235.008l57.344 35.84a85.418667 85.418667 0 0 0 92.544-1.322667l9.216-6.272c9.514667-6.485333 27.221333-18.517333 34.602667-20.394666a85.333333 85.333333 0 0 0 64.554666-82.773334v-74.666666h149.205334M212.78208 180.693333h0.426667-0.426667M382.552747 0a30.165333 30.165333 0 0 0-21.333334 8.917333 30.08 30.08 0 0 0-8.789333 23.253334V160c-25.6 6.442667-51.157333 25.6-70.357333 38.4l-102.357334-64a37.845333 37.845333 0 0 0-21.162666-6.954667c-10.709333 0-19.626667 5.461333-23.552 13.354667l-128 223.914667c-12.885333 19.029333-6.4 38.357333 12.8 44.757333l102.4 64V550.4L19.928747 614.272c-19.242667 6.4-25.6 25.514667-12.842667 44.714667l127.957333 223.872a33.664 33.664 0 0 0 44.8 12.8l102.314667-64c22.698667 14.122667 46.165333 26.965333 70.314667 38.357333v121.6a30.122667 30.122667 0 0 0 30.165333 32c0.597333 0 1.237333 0 1.834667-0.085333h255.914666l-0.042666 0.128a30.378667 30.378667 0 0 0 23.210666-8.746667 30.293333 30.293333 0 0 0 8.789334-23.168v-121.6c25.6-6.4 51.2-25.557333 70.314666-38.357333l102.314667 64c5.12 1.706667 10.24 2.56 15.104 2.56 13.354667 0 25.002667-5.973333 29.696-15.36l127.957333-223.872c6.4-19.072 0-38.314667-12.842666-44.757334l-102.4-63.957333v-76.885333l102.4-64c19.2-6.4 25.6-25.6 12.8-44.8l-128-223.872a33.706667 33.706667 0 0 0-44.714667-12.757334l-102.314667 64a708.266667 708.266667 0 0 0-70.314666-38.4V32.085333A30.293333 30.293333 0 0 0 642.09408 0H384.43008L382.595413 0z m129.792 405.205333c58.837333 0 106.666667 47.872 106.666666 106.666667 0 58.752-47.914667 106.666667-106.666666 106.666667a106.794667 106.794667 0 0 1-106.666667-106.666667c0-58.794667 47.786667-106.666667 106.666667-106.666667m0-85.333333a192 192 0 1 0 0 384 192 192 0 0 0 0-384z" /></svg>