<?xml version="1.0" standalone="no"?><!DOCTYPE svg PUBLIC "-//W3C//DTD SVG 1.1//EN" "http://www.w3.org/Graphics/SVG/1.1/DTD/svg11.dtd"><svg class="icon" width="200px" height="200.00px" viewBox="0 0 1024 1024" version="1.1" xmlns="http://www.w3.org/2000/svg"><path fill="#8a97a0" d="M866.450286 0H0v866.450286h866.450286V0zM787.748571 787.748571H78.774857V78.701714h708.900572v708.900572z m157.549715-590.848v748.324572H196.973714a39.350857 39.350857 0 0 0 0 78.774857H1024V196.900571a39.350857 39.350857 0 0 0-78.774857 0z m-512 433.225143a39.350857 39.350857 0 0 0 39.424-39.350857V472.649143h118.125714a39.350857 39.350857 0 1 0 0-78.774857H472.649143V275.675429a39.350857 39.350857 0 1 0-78.774857 0v118.198857H275.675429a39.350857 39.350857 0 1 0 0 78.774857h118.198857v118.125714c0 21.723429 17.554286 39.350857 39.350857 39.350857z" /></svg>