<?xml version="1.0" standalone="no"?><!DOCTYPE svg PUBLIC "-//W3C//DTD SVG 1.1//EN" "http://www.w3.org/Graphics/SVG/1.1/DTD/svg11.dtd"><svg class="icon" width="200px" height="200.00px" viewBox="0 0 1024 1024" version="1.1" xmlns="http://www.w3.org/2000/svg"><path fill="#8a97a0" d="M535.1936 38.2464h-40.96C221.2864 38.2464 0 258.9184 0 531.1488 0 803.328 221.2864 1024 494.2336 1024s494.2336-220.672 494.2336-492.8512v-40.9088h-453.2736V38.2464z m380.3136 524.5952c-17.2544 228.1984-202.9568 394.8032-432.3328 388.9664-229.376-5.8368-404.7872-182.1184-410.3168-410.88-5.5808-228.7616 160.6656-413.696 389.5296-430.592v452.5056h453.12zM617.8816 0h-31.8464v437.8624H1024v-31.744C1023.6416 183.9104 840.7552 0.4096 617.8816 0z m40.6016 365.2608v-291.328c161.6896 23.2448 271.0016 132.1984 291.5328 291.328h-291.5328z" /></svg>