<?xml version="1.0" standalone="no"?><!DOCTYPE svg PUBLIC "-//W3C//DTD SVG 1.1//EN" "http://www.w3.org/Graphics/SVG/1.1/DTD/svg11.dtd"><svg class="icon" width="200px" height="200.00px" viewBox="0 0 1024 1024" version="1.1" xmlns="http://www.w3.org/2000/svg"><path fill="#8a97a0" d="M945.2544 0H78.7456C35.328 0 0 45.9264 0 102.4v819.2c0 56.4736 35.328 102.4 78.7456 102.4h866.5088C988.672 1024 1024 978.0736 1024 921.6V102.4c0-56.4736-35.328-102.4-78.7456-102.4z m0 956.0064H78.7456v-870.4h866.5088v870.4zM600.3712 634.624h224.9728a41.1136 41.1136 0 1 1 0 82.176h-224.9728a41.1136 41.1136 0 1 1 0-82.176zM283.8016 269.7216l195.2768 195.328a41.1136 41.1136 0 0 1-58.112 58.112L225.6384 327.8336a41.1136 41.1136 0 0 1 58.1632-58.112zM283.8016 718.4384l195.2768-195.2768a41.1136 41.1136 0 0 0-58.112-58.112l-195.328 195.2768a41.1136 41.1136 0 0 0 58.1632 58.112z" /></svg>