<?xml version="1.0" standalone="no"?><!DOCTYPE svg PUBLIC "-//W3C//DTD SVG 1.1//EN" "http://www.w3.org/Graphics/SVG/1.1/DTD/svg11.dtd"><svg class="icon" width="200px" height="200.00px" viewBox="0 0 1024 1024" version="1.1" xmlns="http://www.w3.org/2000/svg"><path fill="#8a97a0" d="M698.583579 0L997.052632 292.594526v658.270316c0 40.421053-33.414737 73.135158-74.644211 73.135158H101.591579C60.362105 1024 26.947368 991.232 26.947368 950.864842V73.135158C26.947368 32.714105 60.362105 0 101.591579 0h596.992z m-74.644211 73.135158H101.591579v877.729684h820.816842V365.729684H661.288421a36.971789 36.971789 0 0 1-37.295158-36.594526v-256z m111.939369 658.270316c20.587789 0 37.295158 16.384 37.295158 36.594526 0 20.210526-16.707368 36.594526-37.295158 36.594526H288.121263a36.971789 36.971789 0 0 1-37.295158-36.594526c0-20.210526 16.707368-36.594526 37.295158-36.594526h447.757474zM353.226105 512c20.587789 0 37.295158 16.384 37.295158 36.594526 0 20.156632-16.707368 36.540632-37.295158 36.540632H288.121263a36.971789 36.971789 0 0 1-37.295158-36.540632c0-20.210526 16.707368-36.594526 37.295158-36.594526h65.104842z m379.041684 0c20.641684 0 37.349053 16.384 37.349053 36.594526 0 20.156632-16.707368 36.540632-37.349053 36.540632H512a36.971789 36.971789 0 0 1-37.295158-36.540632c0-20.210526 16.707368-36.594526 37.295158-36.594526H732.267789zM437.355789 292.594526c20.641684 0 37.349053 16.330105 37.349053 36.540632 0 20.210526-16.707368 36.594526-37.349053 36.594526H288.121263a36.971789 36.971789 0 0 1-37.295158-36.594526c0-20.210526 16.707368-36.540632 37.295158-36.540632h149.288421z m261.22779-189.116631V292.648421h192.889263L698.475789 103.477895z" /></svg>