<?xml version="1.0" encoding="UTF-8"?>
<svg width="40px" height="33px" viewBox="0 0 40 33" version="1.1" xmlns="http://www.w3.org/2000/svg" xmlns:xlink="http://www.w3.org/1999/xlink">
    <title>服务器备份 5</title>
    <g id="设计规范" stroke="none" stroke-width="1" fill="none" fill-rule="evenodd">
        <g id="图标备份" transform="translate(-155.000000, -965.000000)">
            <g id="服务器备份-5" transform="translate(175.063409, 981.400594) rotate(-270.000000) translate(-175.063409, -981.400594) translate(159.063409, 962.063409)">
                <rect id="矩形" stroke="#979797" fill="#FFFFFF" x="1.5" y="1.5" width="29" height="35"></rect>
                <path d="M5.25562771,33.814628 L27.3122328,33.814628 C27.3122328,32.4582223 27.3122328,32.1916732 27.3122328,30.1895283 L27.3122328,8.4395948 C27.3122328,6.43758283 27.3122328,6.43758283 27.3122328,4.81462803 L5.25562771,4.81462803 C5.25562771,5.72259124 5.25562771,6.43771574 5.25562771,8.4395948 L5.25562771,30.1896613 C5.25562771,32.1918061 5.25562771,32.99346 5.25562771,33.814628 Z M7.96832776,7.47072296 L24.9683278,7.47072296 L24.9683278,31.470723 L7.96832776,31.470723 L7.96832776,7.47072296 Z M29.3333781,0 L2.66667074,0 C1.19388867,0 0,1.04938403 0,2.34390507 L0,36.3304642 C0,37.6249852 1.19388867,38.6743692 2.66667074,38.6743692 L29.3333293,38.6743692 C30.8061602,38.6743692 32,37.6249852 32,36.3304642 L32,2.34394804 C32,1.049427 30.8062091,0 29.3333781,0 Z M2.6561379,36.3305071 L2.6561379,2.34394804 L29.6561379,2.34394804 L29.6561379,36.3305071 L2.6561379,36.3305071 Z" id="形状" fill="#8A97A0" fill-rule="nonzero"></path>
            </g>
        </g>
    </g>
</svg>