<?xml version="1.0" encoding="UTF-8"?>
<svg width="39px" height="39px" viewBox="0 0 39 39" version="1.1" xmlns="http://www.w3.org/2000/svg" xmlns:xlink="http://www.w3.org/1999/xlink">
    <title>AK-DV_电脑</title>
    <g id="设计规范" stroke="none" stroke-width="1" fill="none" fill-rule="evenodd">
        <g id="图标备份" transform="translate(-154.000000, -756.000000)">
            <g id="AK-DV_电脑" transform="translate(154.000000, 756.000000)">
                <rect id="矩形" stroke="#FFFFFF" fill="#FFFFFF" x="2.5" y="2.5" width="33" height="24"></rect>
                <path d="M35.1355448,31.621986 L23.0106518,31.621986 C22.9117376,32.1537679 22.838132,32.7255967 22.838132,33.3787654 C22.838132,36.8923242 26.3516908,36.8923242 26.3516908,36.8923242 C27.3219693,36.8923242 28.1084702,37.2856606 28.1084702,37.7707354 C28.1084702,38.255939 27.3219693,38.6491036 26.3516908,38.6491036 L12.2974557,38.6491036 C11.3271772,38.6491036 10.5406763,38.255939 10.5406763,37.7707354 C10.5406763,37.2857035 11.3271772,36.8923242 12.2974557,36.8923242 C12.2974557,36.8923242 15.8110145,36.8923242 15.8110145,33.3787654 C15.8110145,32.7255967 15.7374089,32.1537679 15.6384948,31.621986 L3.51355878,31.621986 C1.57300183,31.621986 -8.8817842e-16,30.0489842 -8.8817842e-16,28.1084272 L-8.8817842e-16,3.51355878 C-8.8817842e-16,1.57300183 1.57300183,8.8817842e-16 3.51355878,8.8817842e-16 L35.1355448,8.8817842e-16 C37.0760588,8.8817842e-16 38.6491036,1.57300183 38.6491036,3.51355878 L38.6491036,28.1084272 C38.6491036,30.0489842 37.0761017,31.621986 35.1355448,31.621986 Z M35.1355448,3.51355878 L3.51355878,3.51355878 L3.51355878,24.5948685 L35.1355448,24.5948685 L35.1355448,3.51355878 Z" id="形状" fill="#8A97A0" fill-rule="nonzero"></path>
            </g>
        </g>
    </g>
</svg>