<?xml version="1.0" encoding="UTF-8"?>
<svg width="28px" height="28px" viewBox="0 0 28 28" version="1.1" xmlns="http://www.w3.org/2000/svg" xmlns:xlink="http://www.w3.org/1999/xlink">
    <title>平板</title>
    <g id="设计规范" stroke="none" stroke-width="1" fill="none" fill-rule="evenodd">
        <g id="图标备份" transform="translate(-159.000000, -901.000000)">
            <g id="平板" transform="translate(159.000000, 901.000000)">
                <rect id="矩形" fill="#FFFFFF" x="2" y="2" width="24" height="24"></rect>
                <path d="M26.2500001,0 L1.75000008,0 L1.75,0 C0.783502344,0 0,0.783502344 0,1.75 C0,1.75 0,1.75 0,1.75 L0,26.25 L0,26.2500003 C0,27.2164979 0.783502344,28 1.75,28 L26.25,28 L26.2499999,28 C27.2164976,28 28,27.2164979 28,26.2500003 L28,1.75000026 L28,1.75000026 C28,0.783502608 27.2164976,0 26.2499999,0 L26.2500001,0 Z M7.00000008,24.5 L3.50000008,24.5 L3.50000008,21 L7.00000008,21 L7.00000008,24.5 Z M7.00000008,7 L3.50000008,7 L3.50000008,3.5 L7.00000008,3.5 L7.00000008,7 Z M24.5000001,24.5 L21.0000001,24.5 L21.0000001,21 L24.5000001,21 L24.5000001,24.5 Z M24.5000001,7 L21.0000001,7 L21.0000001,3.5 L24.5000001,3.5 L24.5000001,7 Z" id="形状" fill="#8A97A0" fill-rule="nonzero"></path>
            </g>
        </g>
    </g>
</svg>