<?xml version="1.0" encoding="UTF-8"?>
<svg width="36px" height="30px" viewBox="0 0 36 30" version="1.1" xmlns="http://www.w3.org/2000/svg" xmlns:xlink="http://www.w3.org/1999/xlink">
    <title>笔记本电脑</title>
    <g id="设计规范" stroke="none" stroke-width="1" fill="none" fill-rule="evenodd">
        <g id="图标备份" transform="translate(-154.000000, -829.000000)">
            <g id="笔记本电脑" transform="translate(154.000000, 829.000000)">
                <polygon id="路径-2" fill="#FFFFFF" points="3.51355878 2.0242462 3.51355878 19.7733904 1.71581895 27.680188 33.8153775 28.104714 31.2386627 20.1079087 31.6668662 2.0242462"></polygon>
                <path d="M35.9225895,28.2885638 L33.4831819,19.787234 L33.4831819,1.27659574 C33.4831819,0.570478723 32.9065947,0 32.1929168,0 L3.80708325,0 C3.09340533,0 2.51681809,0.570478723 2.51681809,1.27659574 L2.51681809,19.787234 L0.077410523,28.2885638 C-0.224995374,29.1223404 0.395944734,30 1.29106619,30 L34.7089338,30 C35.6040553,30 36.2249954,29.1223404 35.9225895,28.2885638 Z M5.4199147,2.87234043 L30.5800853,2.87234043 L30.5800853,18.6303191 L5.4199147,18.6303191 L5.4199147,2.87234043 Z M14.6251502,27.1276596 L14.9517486,25.6515957 L21.0119627,25.6515957 L21.3385611,27.1276596 L14.6251502,27.1276596 L14.6251502,27.1276596 Z M23.6570063,27.1276596 L22.8868793,23.668883 C22.8546227,23.5212766 22.7215641,23.4175532 22.5723772,23.4175532 L13.3953662,23.4175532 C13.2421472,23.4175532 13.1131207,23.5212766 13.0808641,23.668883 L12.3107371,27.1276596 L3.42806786,27.1276596 L5.13363712,21.1835106 L30.8663629,21.1835106 L32.5719321,27.1276596 L23.6570063,27.1276596 L23.6570063,27.1276596 Z" id="形状" fill="#8A97A0" fill-rule="nonzero"></path>
            </g>
        </g>
    </g>
</svg>