<?xml version="1.0" standalone="no"?><!DOCTYPE svg PUBLIC "-//W3C//DTD SVG 1.1//EN" "http://www.w3.org/Graphics/SVG/1.1/DTD/svg11.dtd"><svg class="icon" width="200px" height="200.00px" viewBox="0 0 1024 1024" version="1.1" xmlns="http://www.w3.org/2000/svg"><path fill="#8a97a0" d="M970.105263 0a53.894737 53.894737 0 0 1 53.894737 53.894737v740.837052a53.894737 53.894737 0 0 1-53.894737 53.894737H406.797474l-90.920421 134.575158a26.947368 26.947368 0 0 1-47.104-4.419368l-56.050527-130.15579H53.894737a53.894737 53.894737 0 0 1-53.894737-53.894737V53.894737a53.894737 53.894737 0 0 1 53.894737-53.894737h916.210526z m-26.947368 80.842105h-862.31579v686.942316h185.020632l38.157474 88.549053 59.823157-88.549053H943.157895V80.842105zM227.543579 326.386526v-4.527158a40.421053 40.421053 0 0 1 40.421053-40.421052h350.315789a40.421053 40.421053 0 0 1 40.421053 40.421052v4.527158a40.421053 40.421053 0 0 1-40.421053 40.421053h-350.315789a40.421053 40.421053 0 0 1-40.421053-40.421053zM227.543579 553.930105v-4.527158a40.421053 40.421053 0 0 1 40.421053-40.421052h488.070736a40.421053 40.421053 0 0 1 40.421053 40.421052v4.527158a40.421053 40.421053 0 0 1-40.421053 40.421053H267.964632a40.421053 40.421053 0 0 1-40.421053-40.421053z" /></svg>