<?xml version="1.0" standalone="no"?><!DOCTYPE svg PUBLIC "-//W3C//DTD SVG 1.1//EN" "http://www.w3.org/Graphics/SVG/1.1/DTD/svg11.dtd"><svg class="icon" width="200px" height="200.00px" viewBox="0 0 1024 1024" version="1.1" xmlns="http://www.w3.org/2000/svg"><path fill="#8a97a0" d="M499.755204 13.020976L282.261084 234.867026c-10.035039 11.110222-17.305323 17.407721-21.86205 19.046095-6.809491 2.457561-22.374042 2.047967-34.149854 2.047968H83.710661C37.4778 256.012288 0 294.258076 0 341.361322v341.29374C0 729.758308 37.4778 768.004096 83.710661 768.004096h162.915793c2.611158 0 9.215853-0.511992 14.335771 1.484776 4.607926 1.740772 7.884674 5.939105 9.215852 7.321483l231.113102 235.772228c1.843171 1.89437 6.86069 7.065487 12.594999 9.164653a29.541927 29.541927 0 0 0 15.052559 0.665589 84.99064 84.99064 0 0 0 67.224524-83.71066V85.365418A84.99064 84.99064 0 0 0 531.805891 2.320347c-6.143902-1.535975-13.414185-2.252764-19.302091 0.716788-3.891138 2.047967-8.191869 5.324715-12.748596 9.983841z m12.799795 922.711636L292.859314 688.645366H83.710661V347.402826H292.859314l219.644486-247.087247v835.417033z m495.966465-386.297819c8.294267 0 14.950161-16.793331 14.95016-37.426601 0-20.684469-6.655894-37.426601-14.95016-37.426601h-104.651126c-8.243068 0-14.950161 16.742132-14.950161 37.426601 0 20.63327 6.655894 37.375402 14.950161 37.375402h104.651126z m11.366218-483.678661c7.167885-4.249532 4.710325-22.169245-5.427113-40.037759-10.137438-17.919713-24.114814-29.029936-31.2827-24.831603l-90.62255 53.349546c-7.167885 4.249532-4.761524 22.169245 5.375914 40.03776 10.137438 17.919713 24.166013 29.029936 31.333899 24.831602l90.62255-53.349546z m0 892.50412c7.167885 4.249532 4.710325 22.169245-5.427113 40.037759-10.137438 17.919713-24.114814 29.029936-31.2827 24.780404l-90.62255-53.298347c-7.167885-4.249532-4.761524-22.169245 5.375914-40.03776 10.137438-17.919713 24.166013-29.029936 31.333899-24.831603l90.62255 53.349547z m-364.794163-254.511128c-7.47508-20.479672-5.427113-39.935361 14.642965-47.564039 50.738388-23.858818 74.955601-70.296475 81.150702-128.561143 7.219084-68.043711-24.678005-130.506712-79.768324-156.2599-18.022112-11.775812-25.497192-32.255484-13.926177-50.687189 11.622214-18.329307 31.743492-25.957985 49.714404-14.130974 81.611494 48.332027 130.557911 132.349882 120.215677 229.474729-8.294267 77.720356-54.629526 151.191181-125.437993 182.678677a32.869874 32.869874 0 0 1-46.591254-14.950161z" /></svg>