<?xml version="1.0" standalone="no"?><!DOCTYPE svg PUBLIC "-//W3C//DTD SVG 1.1//EN" "http://www.w3.org/Graphics/SVG/1.1/DTD/svg11.dtd"><svg t="1648604371135" class="icon" viewBox="0 0 1024 1024" version="1.1" xmlns="http://www.w3.org/2000/svg" p-id="18446" xmlns:xlink="http://www.w3.org/1999/xlink" width="200" height="200"><defs><style type="text/css">@font-face { font-family: feedback-iconfont; src: url("//at.alicdn.com/t/font_1031158_u69w8yhxdu.woff2?t=1630033759944") format("woff2"), url("//at.alicdn.com/t/font_1031158_u69w8yhxdu.woff?t=1630033759944") format("woff"), url("//at.alicdn.com/t/font_1031158_u69w8yhxdu.ttf?t=1630033759944") format("truetype"); }
</style></defs><path d="M951.282869 649.718254a43.405571 43.405571 0 0 0-42.950467-43.803787H651.084705a43.803787 43.803787 0 0 0-42.267811 43.803787v255.370392c0 24.177415 19.626372 43.803787 43.803788 43.803787h255.313503a43.405571 43.405571 0 0 0 43.348684-43.462459v-255.71172zM1023.985778 916.523141A108.8837 108.8837 0 0 1 913.281661 1023.98464h-269.421737a108.8837 108.8837 0 0 1-108.826812-108.997476v-270.218169c0-60.187542 48.696158-108.940588 108.826812-108.940588h269.421737c60.073766 0 108.826812 48.753046 108.826812 108.940588L1023.985778 916.523141zM418.583303 649.661366a43.405571 43.405571 0 0 0-44.941548-43.803787H118.328252a43.803787 43.803787 0 0 0-42.210923 43.803787v255.370392a43.803787 43.803787 0 0 0 42.210923 43.803787H373.755531a43.405571 43.405571 0 0 0 44.884661-43.803787V649.661366z m70.768717 266.804887A109.281916 109.281916 0 0 1 380.525208 1023.98464h-271.35593A108.8837 108.8837 0 0 1 0.001138 915.328492v-270.559497C0.001138 584.581454 48.754184 535.885295 108.82795 535.885295H380.582096c60.187542 0 108.997476 48.696158 109.225028 108.940588l-0.398216 271.754146z m461.930849-800.300884a43.405571 43.405571 0 0 0-44.884661-43.803788h-255.313503a43.803787 43.803787 0 0 0-42.267811 43.803788v255.313503c0 24.234303 19.626372 43.803787 43.803788 43.803788h255.313503a43.405571 43.405571 0 0 0 43.348684-43.405571V116.222257zM1022.449801 381.149838a109.281916 109.281916 0 0 1-109.225028 107.461499h-269.364849a109.281916 109.281916 0 0 1-108.826812-107.518387V109.45258A108.8837 108.8837 0 0 1 643.40482 0H913.281661a108.8837 108.8837 0 0 1 108.826812 109.395692v271.697258h0.341328zM418.583303 116.222257a43.405571 43.405571 0 0 0-44.941548-43.803788H118.328252a43.803787 43.803787 0 0 0-42.210923 43.803788v255.313503a43.803787 43.803787 0 0 0 42.210923 43.803788H373.755531a43.405571 43.405571 0 0 0 44.884661-43.803788V116.222257zM487.816043 381.149838A109.680133 109.680133 0 0 1 380.582096 488.554449h-271.35593A109.281916 109.281916 0 0 1 0.001138 381.036062V109.45258A108.940588 108.940588 0 0 1 108.429734 0H380.582096c60.301318 0 109.225028 48.923711 109.225028 109.395692v271.697258h-1.934193z" p-id="18447" fill="#666666"></path></svg>