<?xml version="1.0" standalone="no"?><!DOCTYPE svg PUBLIC "-//W3C//DTD SVG 1.1//EN" "http://www.w3.org/Graphics/SVG/1.1/DTD/svg11.dtd"><svg class="icon" width="200px" height="200.00px" viewBox="0 0 1024 1024" version="1.1" xmlns="http://www.w3.org/2000/svg"><path fill="#8a97a0" d="M371.882667 242.517333h285.610666v91.648H371.882667V242.517333zM0 587.434667h1024v80.896H0v-80.896z m371.882667-210.176h285.610666v91.648H371.882667V377.173333z m0-280.234667h285.610666V188.586667H371.882667V97.024z m361.045333 145.493333h285.696v91.648H732.928V242.517333z m0 134.826667h285.696v91.562667H732.928V377.173333z m0-280.32h285.696V188.586667H732.928V97.024zM16.213333 242.517333h285.696v91.648H16.128V242.517333z m0 134.826667h285.696v91.562667H16.128V377.173333z m0-280.32h285.696V188.586667H16.128V97.024zM468.906667 0h91.562666v1024H468.906667V0zM107.776 0h91.648v1024H107.776V0z m722.176 0H921.6v1024H829.952V0z" /></svg>