<?xml version="1.0" standalone="no"?><!DOCTYPE svg PUBLIC "-//W3C//DTD SVG 1.1//EN" "http://www.w3.org/Graphics/SVG/1.1/DTD/svg11.dtd"><svg t="1648604911756" class="icon" viewBox="0 0 1024 1024" version="1.1" xmlns="http://www.w3.org/2000/svg" p-id="19008" xmlns:xlink="http://www.w3.org/1999/xlink" width="200" height="200"><defs><style type="text/css">@font-face { font-family: feedback-iconfont; src: url("//at.alicdn.com/t/font_1031158_u69w8yhxdu.woff2?t=1630033759944") format("woff2"), url("//at.alicdn.com/t/font_1031158_u69w8yhxdu.woff?t=1630033759944") format("woff"), url("//at.alicdn.com/t/font_1031158_u69w8yhxdu.ttf?t=1630033759944") format("truetype"); }
</style></defs><path d="M948.736 223.744L702.691556 12.572444A52.167111 52.167111 0 0 0 668.728889 0H109.226667A52.508444 52.508444 0 0 0 56.888889 52.622222v918.755556c0 29.013333 23.438222 52.622222 52.337778 52.622222h805.546666c28.899556 0 52.337778-23.608889 52.337778-52.622222V263.736889a52.679111 52.679111 0 0 0-18.375111-39.992889zM715.093333 131.754667l99.555556 85.504h-99.555556V131.754667zM138.979556 941.397333V82.602667h493.966222v164.636444c0 29.013333 23.495111 52.565333 52.337778 52.565333h199.68v641.592889H139.036444zM273.863111 312.547556h190.520889a41.187556 41.187556 0 0 0 41.073778-41.301334c0-22.755556-18.432-41.301333-41.073778-41.301333H273.863111a41.187556 41.187556 0 0 0-41.073778 41.301333c0 22.755556 18.375111 41.301333 41.073778 41.301334z m476.273778 158.151111H273.863111A41.187556 41.187556 0 0 0 232.789333 512c0 22.755556 18.375111 41.301333 41.073778 41.301333h476.273778A41.187556 41.187556 0 0 0 791.210667 512c0-22.755556-18.375111-41.301333-41.073778-41.301333z m0 240.753777H273.863111a41.187556 41.187556 0 0 0-41.073778 41.301334c0 22.755556 18.375111 41.301333 41.073778 41.301333h476.273778a41.187556 41.187556 0 0 0 41.073778-41.301333c0-22.755556-18.375111-41.301333-41.073778-41.301334z" p-id="19009"></path></svg>