<?xml version="1.0" standalone="no"?><!DOCTYPE svg PUBLIC "-//W3C//DTD SVG 1.1//EN" "http://www.w3.org/Graphics/SVG/1.1/DTD/svg11.dtd"><svg t="1648604908354" class="icon" viewBox="0 0 1024 1024" version="1.1" xmlns="http://www.w3.org/2000/svg" p-id="18867" xmlns:xlink="http://www.w3.org/1999/xlink" width="200" height="200"><defs><style type="text/css">@font-face { font-family: feedback-iconfont; src: url("//at.alicdn.com/t/font_1031158_u69w8yhxdu.woff2?t=1630033759944") format("woff2"), url("//at.alicdn.com/t/font_1031158_u69w8yhxdu.woff?t=1630033759944") format("woff"), url("//at.alicdn.com/t/font_1031158_u69w8yhxdu.ttf?t=1630033759944") format("truetype"); }
</style></defs><path d="M967.111111 0a56.888889 56.888889 0 0 1 56.888889 56.888889v682.666667a56.888889 56.888889 0 0 1-56.888889 56.888888H56.888889a56.888889 56.888889 0 0 1-56.888889-56.888888V56.888889a56.888889 56.888889 0 0 1 56.888889-56.888889h910.222222z m-28.444444 85.333333h-853.333334v625.777778h853.333334v-625.777778z" fill="#2c2c2c" p-id="18868"></path><path d="M455.111111 739.555556h85.333333v227.555555H455.111111z" fill="#2c2c2c" p-id="18869"></path><path d="M327.111111 967.111111a42.666667 42.666667 0 0 1 42.666667-42.666667H625.777778a42.666667 42.666667 0 1 1 0 85.333334H369.777778a42.666667 42.666667 0 0 1-42.666667-42.666667zM227.555556 270.222222A42.666667 42.666667 0 0 1 270.222222 227.555556h483.555556a42.666667 42.666667 0 0 1 0 85.333333h-483.555556A42.666667 42.666667 0 0 1 227.555556 270.222222zM227.555556 497.777778A42.666667 42.666667 0 0 1 270.222222 455.111111h483.555556a42.666667 42.666667 0 1 1 0 85.333333h-483.555556A42.666667 42.666667 0 0 1 227.555556 497.777778z" fill="#2c2c2c" p-id="18870"></path></svg>